<?xml version="1.0" encoding="UTF-8"?>
<svg id="Layer_2" data-name="Layer 2" xmlns="http://www.w3.org/2000/svg" xmlns:xlink="http://www.w3.org/1999/xlink" viewBox="0 0 219.49 190.14">
  <defs>
    <style>
      .cls-1 {
        fill: #919dd0;
      }

      .cls-1, .cls-2, .cls-3, .cls-4, .cls-5, .cls-6, .cls-7 {
        stroke-width: 0px;
      }

      .cls-2, .cls-8 {
        fill: none;
      }

      .cls-3 {
        fill: #585656;
      }

      .cls-9 {
        clip-path: url(#clippath-1);
      }

      .cls-4 {
        fill: #fff;
      }

      .cls-5 {
        fill: #76c5b8;
      }

      .cls-10 {
        clip-path: url(#clippath);
      }

      .cls-8 {
        stroke: #1d1d1b;
        stroke-miterlimit: 10;
        stroke-width: 1.58px;
      }

      .cls-6 {
        fill: #fcc468;
      }

      .cls-7 {
        fill: #1d1d1b;
      }
    </style>
    <clipPath id="clippath">
      <rect class="cls-2" width="219.49" height="190.14"/>
    </clipPath>
    <clipPath id="clippath-1">
      <rect class="cls-2" width="219.49" height="190.14"/>
    </clipPath>
  </defs>
  <g id="Layer_1-2" data-name="Layer 1">
    <g id="Buss">
      <g class="cls-10">
        <g class="cls-9">
          <path class="cls-7" d="M212.75,76.6h0c3.71,0,6.74-3.03,6.74-6.74v-15.59c0-3.71-3.03-6.74-6.74-6.74s-6.74,3.03-6.74,6.74v15.59c0,3.71,3.03,6.74,6.74,6.74"/>
          <line class="cls-8" x1="212.75" y1="51.88" x2="212.75" y2="30.16"/>
          <path class="cls-8" d="M213.11,30.71c-4.87-2.35-9.73-4.7-14.6-7.06"/>
          <path class="cls-7" d="M6.74,80.46h0c-3.71,0-6.74-3.03-6.74-6.74v-15.59c0-3.71,3.03-6.74,6.74-6.74s6.74,3.03,6.74,6.74v15.59c0,3.71-3.03,6.74-6.74,6.74"/>
          <line class="cls-8" x1="6.74" y1="55.73" x2="6.74" y2="34.02"/>
          <path class="cls-8" d="M6.38,34.56c4.87-2.35,9.73-4.7,14.6-7.06"/>
          <path class="cls-7" d="M48.04,181.27v-11.29c0-4.88,3.99-8.87,8.87-8.87h11.29c4.88,0,8.87,3.99,8.87,8.87v11.29c0,4.88-3.99,8.87-8.87,8.87h-11.29c-4.88,0-8.87-3.99-8.87-8.87"/>
          <path class="cls-7" d="M142.08,181.27v-11.29c0-4.88,3.99-8.87,8.87-8.87h11.29c4.88,0,8.87,3.99,8.87,8.87v11.29c0,4.88-3.99,8.87-8.87,8.87h-11.29c-4.88,0-8.87-3.99-8.87-8.87"/>
          <path class="cls-6" d="M199.26,165.74H19.04V34.86C19.04,15.61,34.65,0,53.91,0h110.49C183.65,0,199.26,15.61,199.26,34.86v130.88Z"/>
          <path class="cls-5" d="M157.64,30.76H60.66c-3.4,0-6.15-2.75-6.15-6.15s2.75-6.15,6.15-6.15h96.98c3.4,0,6.15,2.75,6.15,6.15s-2.75,6.15-6.15,6.15"/>
          <path class="cls-1" d="M172.85,119.42H45.45c-6.59,0-11.93-5.34-11.93-11.93v-44.18c0-6.59,5.34-11.93,11.93-11.93h127.41c6.59,0,11.93,5.34,11.93,11.93v44.18c0,6.59-5.34,11.93-11.93,11.93"/>
          <path class="cls-4" d="M175.5,153.44h-5.31c-3.53,0-6.39-2.86-6.39-6.39v-5.31c0-3.53,2.86-6.39,6.39-6.39h5.31c3.53,0,6.39,2.86,6.39,6.39v5.31c0,3.53-2.86,6.39-6.39,6.39"/>
          <path class="cls-4" d="M50.11,153.44h-4.38c-3.79,0-6.85-3.07-6.85-6.86v-4.38c0-3.79,3.07-6.86,6.85-6.86h4.38c3.79,0,6.86,3.07,6.86,6.86v4.38c0,3.79-3.07,6.86-6.86,6.86"/>
          <path class="cls-3" d="M132.31,156.69h-45.6c-5.4,0-9.77-4.37-9.77-9.77v-5.07c0-5.4,4.37-9.77,9.77-9.77h45.6c5.4,0,9.77,4.37,9.77,9.77v5.07c0,5.4-4.37,9.77-9.77,9.77"/>
        </g>
      </g>
    </g>
  </g>
</svg>