<?xml version="1.0" encoding="UTF-8"?>
<svg id="Layer_2" data-name="Layer 2" xmlns="http://www.w3.org/2000/svg" xmlns:xlink="http://www.w3.org/1999/xlink" viewBox="0 0 274.26 218.31">
  <defs>
    <style>
      .cls-1 {
        fill: #919dd0;
      }

      .cls-1, .cls-2, .cls-3, .cls-4, .cls-5, .cls-6, .cls-7, .cls-8 {
        stroke-width: 0px;
      }

      .cls-2 {
        fill: none;
      }

      .cls-9 {
        clip-path: url(#clippath-1);
      }

      .cls-3 {
        fill: #ec6242;
      }

      .cls-4 {
        fill: #ef80a9;
      }

      .cls-5 {
        fill: #76c5b8;
      }

      .cls-10 {
        clip-path: url(#clippath);
      }

      .cls-6 {
        fill: #2b2963;
      }

      .cls-7 {
        fill: #fcc468;
      }

      .cls-8 {
        fill: #4555a1;
      }
    </style>
    <clipPath id="clippath">
      <rect class="cls-2" y="0" width="274.26" height="218.31"/>
    </clipPath>
    <clipPath id="clippath-1">
      <rect class="cls-2" y="0" width="274.25" height="218.31"/>
    </clipPath>
  </defs>
  <g id="Layer_1-2" data-name="Layer 1">
    <g id="Böcker">
      <g class="cls-10">
        <g class="cls-9">
          <path class="cls-8" d="M146.4,200.67h-29.19c-2.27,0-4.11-1.84-4.11-4.1V4.11C113.11,1.84,114.94,0,117.21,0h29.19c2.27,0,4.1,1.84,4.1,4.11v192.46c0,2.27-1.84,4.1-4.1,4.1"/>
          <path class="cls-1" d="M146.86,128.31h-30.1c-2.01,0-3.65-1.63-3.65-3.65v-58.99c0-2.01,1.63-3.65,3.65-3.65h30.1c2.02,0,3.65,1.63,3.65,3.65v58.99c0,2.02-1.63,3.65-3.65,3.65"/>
          <path class="cls-4" d="M167.99,200.67h14.29c2.6,0,4.71-2.11,4.71-4.71V43.94c0-2.6-2.11-4.71-4.71-4.71h-14.29c-2.6,0-4.71,2.11-4.71,4.71v152.03c0,2.6,2.11,4.71,4.71,4.71"/>
          <rect class="cls-1" x="113.11" y="16.42" width="37.4" height="5.17"/>
          <path class="cls-3" d="M185.09,74.34h-19.91c-1.05,0-1.9-.85-1.9-1.9v-12.16c0-1.05.85-1.9,1.9-1.9h19.91c1.05,0,1.9.85,1.9,1.9v12.16c0,1.05-.85,1.9-1.9,1.9"/>
          <path class="cls-5" d="M230.08,197.64l-7.94,2.11c-2.35.63-4.76-.77-5.39-3.12l-29.61-111.22c-.63-2.35.77-4.76,3.12-5.39l7.94-2.11c2.35-.63,4.76.77,5.39,3.12l29.61,111.22c.63,2.35-.77,4.76-3.12,5.39"/>
          <rect class="cls-3" x="163.28" y="174.22" width="23.72" height="17.79"/>
          <rect class="cls-3" x="163.28" y="100.34" width="23.72" height="35.12"/>
          <path class="cls-3" d="M93.34,200.67h-32.23c-5.88,0-10.64-4.76-10.64-10.64v-125.88c0-5.88,4.76-10.64,10.64-10.64h32.23c5.88,0,10.64,4.76,10.64,10.64v125.88c0,5.88-4.76,10.64-10.64,10.64"/>
          <path class="cls-7" d="M97.6,150.2h-40.74c-3.51,0-6.39-2.87-6.39-6.39v-34.05c0-3.51,2.88-6.39,6.39-6.39h40.74c3.51,0,6.39,2.88,6.39,6.39v34.05c0,3.51-2.88,6.39-6.39,6.39"/>
          <rect class="cls-6" y="198.85" width="274.25" height="19.46"/>
        </g>
      </g>
    </g>
  </g>
</svg>