<?xml version="1.0" encoding="UTF-8"?>
<svg id="Layer_2" data-name="Layer 2" xmlns="http://www.w3.org/2000/svg" xmlns:xlink="http://www.w3.org/1999/xlink" viewBox="0 0 179.7 181.69">
  <defs>
    <style>
      .cls-1 {
        fill: #7562a8;
      }

      .cls-1, .cls-2, .cls-3 {
        stroke-width: 0px;
      }

      .cls-2, .cls-4 {
        fill: none;
      }

      .cls-5 {
        clip-path: url(#clippath-1);
      }

      .cls-3 {
        fill: #f6f6f6;
      }

      .cls-4 {
        stroke: #7562a8;
        stroke-miterlimit: 10;
        stroke-width: 5.54px;
      }

      .cls-6 {
        clip-path: url(#clippath);
      }
    </style>
    <clipPath id="clippath">
      <rect class="cls-2" width="179.7" height="181.69"/>
    </clipPath>
    <clipPath id="clippath-1">
      <rect class="cls-2" y="0" width="179.7" height="181.69"/>
    </clipPath>
  </defs>
  <g id="Layer_1-2" data-name="Layer 1">
    <g id="Facebook">
      <g class="cls-6">
        <rect class="cls-1" y="0" width="179.7" height="179.7"/>
        <g class="cls-5">
          <path class="cls-3" d="M131.46,56.81c-5.19,4.83-5.19,12.08-5.04,23.25.02,1.16.03,2.3.05,3.43,9.74-.02,19.48-.05,29.22-.08-1.54,9.24-3.09,18.49-4.64,27.73h-24.2c.22,15.47.32,23.23.33,23.36.5,10.53.79,25.73-.52,44.43h-27.98c.22-25.88.5-48.86.75-67.79h-23.62v-27.48c8.01-.03,16.03-.05,24.04-.08.17-11.66.32-20.05.37-24.56.03-2.79.12-9.64,3.85-16.95,2.42-4.73,5.49-7.96,7.44-9.76,7.5-3.71,13.63-4.81,17.72-5.14,2.73-.22,2.49.07,13.06-.19,0,0,2.36-.06,7.23.19,5.17.26,5.79.57,6.25.96,2.08,1.8.97,5.58.29,11.55-.38,3.35-.72,8.18-.38,14.19-4.33-1.13-16.89-3.86-24.23,2.94"/>
          <path class="cls-4" d="M131.46,56.81c-5.19,4.83-5.19,12.08-5.04,23.25.02,1.16.03,2.3.05,3.43,9.74-.02,19.48-.05,29.22-.08-1.54,9.24-3.09,18.49-4.64,27.73h-24.2c.22,15.47.32,23.23.33,23.36.5,10.53.79,25.73-.52,44.43h-27.98c.22-25.88.5-48.86.75-67.79h-23.62v-27.48c8.01-.03,16.03-.05,24.04-.08.17-11.66.32-20.05.37-24.56.03-2.79.12-9.64,3.85-16.95,2.42-4.73,5.49-7.96,7.44-9.76,7.5-3.71,13.63-4.81,17.72-5.14,2.73-.22,2.49.07,13.06-.19,0,0,2.36-.06,7.23.19,5.17.26,5.79.57,6.25.96,2.08,1.8.97,5.58.29,11.55-.38,3.35-.72,8.18-.38,14.19-4.33-1.13-16.89-3.86-24.23,2.94Z"/>
        </g>
      </g>
    </g>
  </g>
</svg>