<?xml version="1.0" encoding="UTF-8"?>
<svg id="Layer_2" data-name="Layer 2" xmlns="http://www.w3.org/2000/svg" xmlns:xlink="http://www.w3.org/1999/xlink" viewBox="0 0 288.73 180.84">
  <defs>
    <style>
      .cls-1 {
        stroke-linecap: round;
        stroke-linejoin: round;
      }

      .cls-1, .cls-2, .cls-3 {
        fill: none;
      }

      .cls-1, .cls-3 {
        stroke: #231f20;
        stroke-width: 1.23px;
      }

      .cls-4 {
        fill: #909cce;
      }

      .cls-4, .cls-2, .cls-5, .cls-6, .cls-7 {
        stroke-width: 0px;
      }

      .cls-8 {
        clip-path: url(#clippath-1);
      }

      .cls-5 {
        fill: #4753a3;
      }

      .cls-6 {
        fill: #fff;
      }

      .cls-9 {
        clip-path: url(#clippath);
      }

      .cls-7 {
        fill: #73c8b9;
      }

      .cls-3 {
        stroke-miterlimit: 10;
      }
    </style>
    <clipPath id="clippath">
      <rect class="cls-2" y="0" width="288.73" height="180.84"/>
    </clipPath>
    <clipPath id="clippath-1">
      <rect class="cls-2" y="0" width="288.73" height="180.84"/>
    </clipPath>
  </defs>
  <g id="Layer_1-2" data-name="Layer 1">
    <g id="Färg_logga" data-name="Färg logga">
      <g class="cls-9">
        <g class="cls-8">
          <path class="cls-7" d="M280.74,180.23H7.99c-4.06,0-7.38-3.32-7.38-7.38v-10.1c0-4.06,3.32-7.38,7.38-7.38h272.75c4.06,0,7.38,3.32,7.38,7.38v10.1c0,4.06-3.32,7.38-7.38,7.38"/>
          <rect class="cls-3" x=".61" y="155.38" width="287.5" height="24.85" rx="7.38" ry="7.38"/>
          <rect class="cls-4" x="22.21" y="65.95" width="244.32" height="100.06"/>
          <rect class="cls-3" x="22.21" y="65.95" width="244.32" height="100.06"/>
          <polyline class="cls-4" points="86.98 161.67 86.98 39.65 144.36 6.64 201.75 39.65 201.75 161.67"/>
          <polyline class="cls-3" points="86.98 161.67 86.98 39.65 144.36 6.64 201.75 39.65 201.75 161.67"/>
          <path class="cls-6" d="M157.66,36.77c0,7.34-5.95,13.29-13.29,13.29s-13.29-5.95-13.29-13.29,5.95-13.29,13.29-13.29,13.29,5.95,13.29,13.29"/>
          <circle class="cls-3" cx="144.37" cy="36.77" r="13.29"/>
          <line class="cls-1" x1="144.29" y1="37.27" x2="144.29" y2="26.65"/>
          <line class="cls-1" x1="144.29" y1="37.27" x2="151.24" y2="41.52"/>
          <polygon class="cls-5" points="205.51 36.72 201.75 40.58 144.36 6.64 86.98 40.58 83.07 36.48 144.36 .71 205.51 36.72"/>
          <polygon class="cls-3" points="205.51 36.72 201.75 40.58 144.36 6.64 86.98 40.58 83.07 36.48 144.36 .71 205.51 36.72"/>
          <polygon class="cls-5" points="22.21 56.65 86.98 56.59 86.98 72.81 17.9 72.81 22.21 56.65"/>
          <polygon class="cls-3" points="22.21 56.65 86.98 56.59 86.98 72.81 17.9 72.81 22.21 56.65"/>
          <polygon class="cls-5" points="270.83 72.81 201.75 72.81 201.75 56.5 266.52 56.44 270.83 72.81"/>
          <polygon class="cls-3" points="270.83 72.81 201.75 72.81 201.75 56.5 266.52 56.44 270.83 72.81"/>
          <rect class="cls-5" x="22.21" y="149.78" width="64.77" height="16.23"/>
          <rect class="cls-3" x="22.21" y="149.78" width="64.77" height="16.23"/>
          <rect class="cls-5" x="201.75" y="149.78" width="64.77" height="16.23"/>
          <rect class="cls-3" x="201.75" y="149.78" width="64.77" height="16.23"/>
          <path class="cls-5" d="M61.56,104.24h-19.95v-15.75c0-4.34,3.52-7.86,7.86-7.86h4.23c4.34,0,7.86,3.52,7.86,7.86v15.75Z"/>
          <path class="cls-3" d="M61.56,104.24h-19.95v-15.75c0-4.34,3.52-7.86,7.86-7.86h4.23c4.34,0,7.86,3.52,7.86,7.86v15.75Z"/>
          <path class="cls-5" d="M61.56,138.81h-19.95v-15.75c0-4.34,3.52-7.86,7.86-7.86h4.23c4.34,0,7.86,3.52,7.86,7.86v15.75Z"/>
          <path class="cls-3" d="M61.56,138.81h-19.95v-15.75c0-4.34,3.52-7.86,7.86-7.86h4.23c4.34,0,7.86,3.52,7.86,7.86v15.75Z"/>
          <path class="cls-5" d="M244.11,104.83h-19.95v-15.75c0-4.34,3.52-7.86,7.86-7.86h4.23c4.34,0,7.86,3.52,7.86,7.86v15.75Z"/>
          <path class="cls-3" d="M244.11,104.83h-19.95v-15.75c0-4.34,3.52-7.86,7.86-7.86h4.23c4.34,0,7.86,3.52,7.86,7.86v15.75Z"/>
          <path class="cls-5" d="M127.22,80.97h-19.95v-15.75c0-4.34,3.52-7.86,7.86-7.86h4.23c4.34,0,7.86,3.52,7.86,7.86v15.75Z"/>
          <path class="cls-3" d="M127.22,80.97h-19.95v-15.75c0-4.34,3.52-7.86,7.86-7.86h4.23c4.34,0,7.86,3.52,7.86,7.86v15.75Z"/>
          <path class="cls-5" d="M154.25,80.97h-19.95v-15.75c0-4.34,3.52-7.86,7.86-7.86h4.23c4.34,0,7.86,3.52,7.86,7.86v15.75Z"/>
          <path class="cls-3" d="M154.25,80.97h-19.95v-15.75c0-4.34,3.52-7.86,7.86-7.86h4.23c4.34,0,7.86,3.52,7.86,7.86v15.75Z"/>
          <path class="cls-5" d="M181.47,80.97h-19.95v-15.75c0-4.34,3.52-7.86,7.86-7.86h4.23c4.34,0,7.86,3.52,7.86,7.86v15.75Z"/>
          <path class="cls-3" d="M181.47,80.97h-19.95v-15.75c0-4.34,3.52-7.86,7.86-7.86h4.23c4.34,0,7.86,3.52,7.86,7.86v15.75Z"/>
          <path class="cls-5" d="M244.11,139.4h-19.95v-15.75c0-4.34,3.52-7.86,7.86-7.86h4.23c4.34,0,7.86,3.52,7.86,7.86v15.75Z"/>
          <path class="cls-3" d="M244.11,139.4h-19.95v-15.75c0-4.34,3.52-7.86,7.86-7.86h4.23c4.34,0,7.86,3.52,7.86,7.86v15.75Z"/>
          <path class="cls-5" d="M163.9,166.01h-39.06v-36.56c0-8.5,6.89-15.38,15.38-15.38h8.29c8.5,0,15.38,6.89,15.38,15.38v36.56Z"/>
          <path class="cls-3" d="M163.9,166.01h-39.06v-36.56c0-8.5,6.89-15.38,15.38-15.38h8.29c8.5,0,15.38,6.89,15.38,15.38v36.56Z"/>
          <path class="cls-5" d="M107.69,166.01h-22.08c-1.66,0-3.01-1.35-3.01-3.01v-6.62c0-1.66,1.35-3.01,3.01-3.01h22.08c1.66,0,3.01,1.35,3.01,3.01v6.62c0,1.66-1.35,3.01-3.01,3.01"/>
          <rect class="cls-3" x="82.6" y="153.36" width="28.1" height="12.65" rx="3.01" ry="3.01"/>
          <path class="cls-5" d="M203.1,166.01h-22.08c-1.66,0-3.01-1.35-3.01-3.01v-6.62c0-1.66,1.35-3.01,3.01-3.01h22.08c1.66,0,3.01,1.35,3.01,3.01v6.62c0,1.66-1.35,3.01-3.01,3.01"/>
          <rect class="cls-3" x="178.01" y="153.36" width="28.1" height="12.65" rx="3.01" ry="3.01"/>
          <rect class="cls-5" x="86.98" y="103.41" width="19.08" height="49.95"/>
          <rect class="cls-3" x="86.98" y="103.41" width="19.08" height="49.95"/>
          <rect class="cls-5" x="182.52" y="103.41" width="19.08" height="49.95"/>
          <rect class="cls-3" x="182.52" y="103.41" width="19.08" height="49.95"/>
          <polygon class="cls-5" points="205.51 103.41 83.75 103.41 86.98 88.28 201.6 88.28 205.51 103.41"/>
          <polygon class="cls-3" points="205.51 103.41 83.75 103.41 86.98 88.28 201.6 88.28 205.51 103.41"/>
          <line class="cls-1" x1="188.92" y1="109.06" x2="188.92" y2="149.73"/>
          <line class="cls-1" x1="195.2" y1="109.06" x2="195.2" y2="149.73"/>
          <line class="cls-1" x1="92.52" y1="109.06" x2="92.52" y2="149.73"/>
          <line class="cls-1" x1="98.8" y1="109.06" x2="98.8" y2="149.73"/>
        </g>
      </g>
    </g>
  </g>
</svg>