<?xml version="1.0" encoding="UTF-8"?>
<svg id="Layer_2" data-name="Layer 2" xmlns="http://www.w3.org/2000/svg" xmlns:xlink="http://www.w3.org/1999/xlink" viewBox="0 0 257.13 260.56">
  <defs>
    <style>
      .cls-1 {
        stroke: #000;
        stroke-miterlimit: 10;
        stroke-width: 1.48px;
      }

      .cls-1, .cls-2 {
        fill: none;
      }

      .cls-3, .cls-4, .cls-2, .cls-5 {
        stroke-width: 0px;
      }

      .cls-4 {
        fill: #909cce;
      }

      .cls-6 {
        clip-path: url(#clippath-1);
      }

      .cls-7 {
        clip-path: url(#clippath);
      }

      .cls-5 {
        fill: #4554a5;
      }
    </style>
    <clipPath id="clippath">
      <rect class="cls-2" width="257.13" height="260.56"/>
    </clipPath>
    <clipPath id="clippath-1">
      <rect class="cls-2" width="257.13" height="260.56"/>
    </clipPath>
  </defs>
  <g id="Layer_1-2" data-name="Layer 1">
    <g id="Gubbar">
      <g class="cls-7">
        <g class="cls-6">
          <path class="cls-5" d="M256.39,244.8H110.42v-108.6c0-20.55,16.82-37.37,37.37-37.37h71.23c20.55,0,37.37,16.82,37.37,37.37v108.6Z"/>
          <path class="cls-1" d="M256.39,244.8H110.42v-108.6c0-20.55,16.82-37.37,37.37-37.37h71.23c20.55,0,37.37,16.82,37.37,37.37v108.6Z"/>
          <path class="cls-4" d="M183.4,83.8c-24.58,0-44.57-18.63-44.57-41.53S158.83.74,183.4.74s44.57,18.63,44.57,41.53-20,41.53-44.57,41.53"/>
          <path class="cls-3" d="M183.41,1.48c24.17,0,43.83,18.3,43.83,40.79s-19.66,40.79-43.83,40.79-43.83-18.3-43.83-40.79S159.24,1.48,183.41,1.48M183.41,0C158.38,0,138.09,18.92,138.09,42.27s20.29,42.27,45.31,42.27,45.31-18.92,45.31-42.27S208.43,0,183.41,0"/>
          <path class="cls-4" d="M73.72,98.09c-24.58,0-44.57-18.63-44.57-41.53S49.15,15.04,73.72,15.04s44.57,18.63,44.57,41.53-19.99,41.53-44.57,41.53"/>
          <path class="cls-3" d="M73.72,15.78c24.17,0,43.83,18.3,43.83,40.79s-19.66,40.79-43.83,40.79-43.83-18.3-43.83-40.79S49.55,15.78,73.72,15.78M73.72,14.3c-25.02,0-45.31,18.92-45.31,42.27s20.29,42.27,45.31,42.27,45.31-18.92,45.31-42.27S98.75,14.3,73.72,14.3"/>
          <path class="cls-5" d="M146.7,259.82H.74v-108.6c0-20.55,16.82-37.37,37.37-37.37h71.23c20.55,0,37.37,16.82,37.37,37.37v108.6Z"/>
          <path class="cls-1" d="M146.7,259.82H.74v-108.6c0-20.55,16.82-37.37,37.37-37.37h71.23c20.55,0,37.37,16.82,37.37,37.37v108.6Z"/>
        </g>
      </g>
    </g>
  </g>
</svg>