<?xml version="1.0" encoding="UTF-8"?>
<svg id="Layer_1" data-name="Layer 1" xmlns="http://www.w3.org/2000/svg" viewBox="0 0 83.24 167.74">
  <defs>
    <style>
      .cls-1 {
        fill: #f16240;
        stroke-width: 0px;
      }

      .cls-2 {
        fill: none;
        stroke: #a32911;
      }

      .cls-2, .cls-3 {
        stroke-linecap: round;
        stroke-linejoin: round;
      }

      .cls-3 {
        fill: #909cce;
        stroke: #616e93;
      }
    </style>
  </defs>
  <path class="cls-1" d="M81,91.44H23.34c-.45-1.13-.9-2.3-1.32-3.52-1.26-3.6-2.17-7.03-2.85-10.22,1.51-6.07,2.68-12.66,3.29-19.71.09-1,.16-1.99.22-2.97V12.42c0-4.15,3.36-7.51,7.51-7.51,2.08,0,3.95.84,5.31,2.2,1.36,1.36,2.2,3.23,2.2,5.31v-4.91c0-4.15,3.36-7.51,7.51-7.51,2.07,0,3.95.84,5.31,2.2,1.36,1.36,2.2,3.24,2.2,5.31v5.52c0-4.15,3.36-7.51,7.51-7.51,2.07,0,3.95.84,5.31,2.2,1.36,1.36,2.2,3.24,2.2,5.31v7.66c0-4.15,3.36-7.51,7.51-7.51,2.07,0,3.95.84,5.31,2.2,1.36,1.36,2.2,3.24,2.2,5.31v36.17c.67,7.66.75,16.51-.44,26.21-.36,2.91-.81,5.7-1.32,8.36Z"/>
  <path class="cls-2" d="M37.64,12.43v43.57"/>
  <line class="cls-2" x1="52.61" y1="12.87" x2="52.61" y2="56.01"/>
  <line class="cls-2" x1="67.57" y1="20.8" x2="67.57" y2="58.65"/>
  <path class="cls-2" d="M42.48,57.33c2.65-.66,6.09-1.25,10.12-1.32,3.82-.06,7.11.36,9.68.88"/>
  <rect class="cls-3" x="23.9" y="107.74" width="56.34" height="59.5" rx="2.51" ry="2.51"/>
  <path class="cls-3" d="M82.14,95.37v10.21c0,2.77-2.18,5.01-4.88,5.01H26.14c-2.7,0-4.88-2.24-4.88-5.01v-10.21c0-2.77,2.18-5.01,4.88-5.01h51.12c2.7,0,4.88,2.24,4.88,5.01Z"/>
  <circle class="cls-3" cx="75.37" cy="101.66" r="3.96"/>
  <rect class="cls-1" x="8.49" y="45.06" width="18.1" height="42.11" rx="9.05" ry="9.05" transform="translate(-41.62 31.77) rotate(-45)"/>
</svg>