<?xml version="1.0" encoding="UTF-8"?>
<svg id="Layer_2" data-name="Layer 2" xmlns="http://www.w3.org/2000/svg" xmlns:xlink="http://www.w3.org/1999/xlink" viewBox="0 0 270.33 218.31">
  <defs>
    <style>
      .cls-1 {
        stroke: #fcc468;
        stroke-miterlimit: 10;
        stroke-width: 2.2px;
      }

      .cls-1, .cls-2 {
        fill: none;
      }

      .cls-3 {
        fill: #373337;
      }

      .cls-3, .cls-2, .cls-4, .cls-5, .cls-6 {
        stroke-width: 0px;
      }

      .cls-7 {
        clip-path: url(#clippath-1);
      }

      .cls-8 {
        clip-path: url(#clippath);
      }

      .cls-4 {
        fill: #2f2e2f;
      }

      .cls-5 {
        fill: #fcc468;
      }

      .cls-6 {
        fill: #575756;
      }
    </style>
    <clipPath id="clippath">
      <rect class="cls-2" width="270.33" height="218.31"/>
    </clipPath>
    <clipPath id="clippath-1">
      <rect class="cls-2" width="270.33" height="218.31"/>
    </clipPath>
  </defs>
  <g id="Layer_1-2" data-name="Layer 1">
    <g id="Hatt">
      <g class="cls-8">
        <g class="cls-7">
          <path class="cls-3" d="M270.33,23.95c-46.36,4.96-92.71,9.93-139.07,14.89C87.51,28.46,43.76,18.09,0,7.72,47.19,5.14,94.39,2.57,141.58,0c42.92,7.98,85.83,15.96,128.75,23.95"/>
          <path class="cls-4" d="M192.09,31.01c-20.82,1.89-41.63,3.78-62.45,5.67.69,34.7,1.39,69.4,2.08,104.1,27.34-11.25,54.69-22.51,82.03-33.76-7.22-25.34-14.45-50.67-21.67-76.01"/>
          <path class="cls-6" d="M129.64,36.68c-18-4.27-35.99-8.53-53.98-12.8-7.87,25.53-15.74,51.06-23.61,76.59,26.56,13.44,53.12,26.87,79.68,40.31-.69-34.7-1.39-69.4-2.08-104.1"/>
          <path class="cls-5" d="M144.94,13.5c-.66,1.72-3.99,1.48-8.61,1.15-4.61-.33-8.08-.57-8.49-2.26-.59-2.41,4.94-8.36,10.29-7.2,4.24.92,7.66,6.15,6.82,8.31"/>
          <path class="cls-1" d="M144.85,11.47c7.44-1.25,17.11-1.98,28.25-.49,17.74,2.37,31.48,9.32,40.06,14.68"/>
          <path class="cls-5" d="M212.64,24.92c1.16,38.19,2.14,69.1,1.6,69.12"/>
          <path class="cls-1" d="M212.64,24.92c1.16,38.19,2.14,69.1,1.6,69.12"/>
          <path class="cls-5" d="M218.38,103.52l3.47,114.5-9.46.29-3.46-114.5c-2.2-.19-3.49-1.89-2.36-3.35l3.98-5.15c1.23-1.58,4.39-1.68,5.71-.17l4.29,4.9c1.22,1.39.02,3.16-2.16,3.49"/>
        </g>
      </g>
    </g>
  </g>
</svg>