<?xml version="1.0" encoding="UTF-8"?>
<svg id="Lager_1" data-name="Lager 1" xmlns="http://www.w3.org/2000/svg" viewBox="0 0 628.95 393.63">
  <defs>
    <style>
      .cls-1 {
        fill: #9ea4d3;
      }

      .cls-1, .cls-2, .cls-3, .cls-4, .cls-5 {
        stroke: #1d1d1b;
        stroke-width: 2px;
      }

      .cls-1, .cls-2, .cls-3, .cls-5 {
        stroke-miterlimit: 10;
      }

      .cls-2 {
        fill: #4a4a99;
      }

      .cls-3 {
        fill: #fff;
      }

      .cls-4 {
        fill: none;
        stroke-linecap: round;
        stroke-linejoin: round;
      }

      .cls-5 {
        fill: #80c8bb;
      }
    </style>
  </defs>
  <rect class="cls-5" x="1" y="338.43" width="626.95" height="54.19" rx="19.5" ry="19.5"/>
  <rect class="cls-1" x="48.09" y="143.42" width="532.78" height="218.2"/>
  <polyline class="cls-1" points="189.34 352.16 189.34 86.08 314.47 14.08 439.61 86.08 439.61 352.16"/>
  <circle class="cls-3" cx="314.48" cy="79.79" r="28.99"/>
  <line class="cls-4" x1="314.31" y1="80.88" x2="314.31" y2="57.73"/>
  <line class="cls-4" x1="314.31" y1="80.88" x2="329.46" y2="90.14"/>
  <g>
    <polygon class="cls-2" points="447.81 79.68 439.61 88.09 314.47 14.08 189.34 88.09 180.8 79.16 314.47 1.16 447.81 79.68"/>
    <polygon class="cls-2" points="48.09 123.14 189.34 123.01 189.34 158.38 38.69 158.38 48.09 123.14"/>
    <polygon class="cls-2" points="590.26 158.38 439.61 158.38 439.61 122.81 580.86 122.69 590.26 158.38"/>
    <rect class="cls-2" x="48.09" y="326.22" width="141.25" height="35.4"/>
    <rect class="cls-2" x="439.61" y="326.22" width="141.25" height="35.4"/>
    <path class="cls-2" d="m111.16,175.44h1.97c11.46,0,20.77,9.31,20.77,20.77v30.7h-43.51v-30.7c0-11.46,9.31-20.77,20.77-20.77Z"/>
    <path class="cls-2" d="m111.16,250.83h1.97c11.46,0,20.77,9.31,20.77,20.77v30.7h-43.51v-30.7c0-11.46,9.31-20.77,20.77-20.77Z"/>
    <path class="cls-2" d="m509.25,176.73h1.97c11.46,0,20.77,9.31,20.77,20.77v30.7h-43.51v-30.7c0-11.46,9.31-20.77,20.77-20.77Z"/>
    <path class="cls-2" d="m254.34,124.71h1.97c11.46,0,20.77,9.31,20.77,20.77v30.7h-43.51v-30.7c0-11.46,9.31-20.77,20.77-20.77Z"/>
    <path class="cls-2" d="m313.29,124.71h1.97c11.46,0,20.77,9.31,20.77,20.77v30.7h-43.51v-30.7c0-11.46,9.31-20.77,20.77-20.77Z"/>
    <path class="cls-2" d="m372.65,124.71h1.97c11.46,0,20.77,9.31,20.77,20.77v30.7h-43.51v-30.7c0-11.46,9.31-20.77,20.77-20.77Z"/>
    <path class="cls-2" d="m509.25,252.12h1.97c11.46,0,20.77,9.31,20.77,20.77v30.7h-43.51v-30.7c0-11.46,9.31-20.77,20.77-20.77Z"/>
    <path class="cls-2" d="m312.55,248.34h3.85c22.44,0,40.66,18.22,40.66,40.66v72.61h-85.17v-72.61c0-22.44,18.22-40.66,40.66-40.66Z"/>
    <rect class="cls-2" x="179.77" y="334.04" width="61.29" height="27.58" rx="7.96" ry="7.96"/>
    <rect class="cls-2" x="387.84" y="334.04" width="61.29" height="27.58" rx="7.96" ry="7.96"/>
    <rect class="cls-2" x="189.34" y="225.12" width="41.61" height="108.92"/>
    <rect class="cls-2" x="397.67" y="225.12" width="41.61" height="108.92"/>
    <polygon class="cls-2" points="447.81 225.12 182.29 225.12 189.34 192.11 439.29 192.11 447.81 225.12"/>
  </g>
  <line class="cls-4" x1="411.63" y1="237.44" x2="411.63" y2="326.11"/>
  <line class="cls-4" x1="425.33" y1="237.44" x2="425.33" y2="326.11"/>
  <line class="cls-4" x1="201.42" y1="237.44" x2="201.42" y2="326.11"/>
  <line class="cls-4" x1="215.12" y1="237.44" x2="215.12" y2="326.11"/>
</svg>