<?xml version="1.0" encoding="UTF-8"?>
<svg id="Layer_2" data-name="Layer 2" xmlns="http://www.w3.org/2000/svg" xmlns:xlink="http://www.w3.org/1999/xlink" viewBox="0 0 285.41 198.59">
  <defs>
    <style>
      .cls-1 {
        fill: #7562a8;
      }

      .cls-1, .cls-2 {
        stroke-width: 0px;
      }

      .cls-2, .cls-3 {
        fill: none;
      }

      .cls-4 {
        clip-path: url(#clippath-1);
      }

      .cls-3 {
        stroke: #7562a8;
        stroke-miterlimit: 10;
        stroke-width: 5.95px;
      }

      .cls-5 {
        clip-path: url(#clippath);
      }
    </style>
    <clipPath id="clippath">
      <rect class="cls-2" y="0" width="285.41" height="198.59"/>
    </clipPath>
    <clipPath id="clippath-1">
      <rect class="cls-2" y="0" width="285.41" height="198.59"/>
    </clipPath>
  </defs>
  <g id="Layer_1-2" data-name="Layer 1">
    <g id="mail">
      <g class="cls-5">
        <g class="cls-4">
          <path class="cls-1" d="M175.67,111.34c-2.15-1.8-5.32-1.71-7.32.29-3.86,3.87-7.75,7.69-11.62,11.56h-29c-4.15-4.81-8.3-9.6-12.48-14.41-2.09-2.4-5.8-2.62-8.14-.44-31.63,29.07-63.23,58.14-94.87,87.23l72.13-.48c34.96-.29,69.91-.57,104.88-.82,27.64-.22,55.28-.45,82.93-.67l-96.51-82.27ZM141.16,138.66c-.07-.07-.12-.16-.19-.22h.41c-.06.06-.15.15-.22.22"/>
          <path class="cls-3" d="M175.67,111.34c-2.15-1.8-5.32-1.71-7.32.29-3.86,3.87-7.75,7.69-11.62,11.56h-29c-4.15-4.81-8.3-9.6-12.48-14.41-2.09-2.4-5.8-2.62-8.14-.44-31.63,29.07-63.23,58.14-94.87,87.23l72.13-.48c34.96-.29,69.91-.57,104.88-.82,27.64-.22,55.28-.45,82.93-.67l-96.51-82.27ZM141.16,138.66c-.07-.07-.12-.16-.19-.22h.41c-.06.06-.15.15-.22.22Z"/>
          <path class="cls-1" d="M135.94,105.47C94.87,70.32,53.8,35.16,12.74,0c85.67.33,171.35.65,257.02.97-39.33,34.8-78.66,69.59-117.99,104.38-4.51,3.99-11.26,4.05-15.83.13"/>
          <path class="cls-1" d="M285.41,185.32c-33.5-29.4-67-58.8-100.5-88.2,33.15-29.27,66.31-58.54,99.45-87.8.35,58.67.7,117.33,1.04,176"/>
          <path class="cls-1" d="M0,184.82c33.5-29.4,67-58.8,100.5-88.2C67.34,67.36,34.19,38.09,1.04,8.82c-.35,58.67-.7,117.33-1.04,176"/>
        </g>
      </g>
    </g>
  </g>
</svg>