<?xml version="1.0" encoding="UTF-8"?>
<svg id="Layer_2" data-name="Layer 2" xmlns="http://www.w3.org/2000/svg" xmlns:xlink="http://www.w3.org/1999/xlink" viewBox="0 0 211.09 292.96">
  <defs>
    <style>
      .cls-1 {
        fill: none;
      }

      .cls-1, .cls-2, .cls-3 {
        stroke-width: 0px;
      }

      .cls-4 {
        clip-path: url(#clippath-1);
      }

      .cls-2 {
        fill: #fff;
      }

      .cls-5 {
        clip-path: url(#clippath);
      }

      .cls-3 {
        fill: #262166;
      }
    </style>
    <clipPath id="clippath">
      <rect class="cls-1" width="211.09" height="292.96"/>
    </clipPath>
    <clipPath id="clippath-1">
      <rect class="cls-1" width="211.09" height="292.96"/>
    </clipPath>
  </defs>
  <g id="Layer_1-2" data-name="Layer 1">
    <g id="Miniräknare">
      <g class="cls-5">
        <g class="cls-4">
          <path class="cls-3" d="M189.75,292.96H21.34C9.55,292.96,0,283.4,0,271.62V21.34C0,9.55,9.55,0,21.34,0h168.41c11.78,0,21.34,9.55,21.34,21.34v250.28c0,11.79-9.55,21.34-21.34,21.34"/>
          <rect class="cls-2" x="23.24" y="34.86" width="164.61" height="54.22"/>
          <path class="cls-2" d="M48.6,139.43h-17.96c-4.62,0-8.37-3.75-8.37-8.37v-8.43c0-4.62,3.75-8.37,8.37-8.37h17.96c4.62,0,8.37,3.75,8.37,8.37v8.43c0,4.62-3.75,8.37-8.37,8.37"/>
          <path class="cls-2" d="M91.97,139.43h-17.96c-4.62,0-8.37-3.75-8.37-8.37v-8.43c0-4.62,3.75-8.37,8.37-8.37h17.96c4.62,0,8.37,3.75,8.37,8.37v8.43c0,4.62-3.75,8.37-8.37,8.37"/>
          <path class="cls-2" d="M137.07,139.43h-17.96c-4.62,0-8.37-3.75-8.37-8.37v-8.43c0-4.62,3.75-8.37,8.37-8.37h17.96c4.62,0,8.37,3.75,8.37,8.37v8.43c0,4.62-3.75,8.37-8.37,8.37"/>
          <path class="cls-2" d="M180.44,139.43h-17.96c-4.62,0-8.37-3.75-8.37-8.37v-8.43c0-4.62,3.75-8.37,8.37-8.37h17.96c4.62,0,8.37,3.75,8.37,8.37v8.43c0,4.62-3.75,8.37-8.37,8.37"/>
          <path class="cls-2" d="M48.6,180.1h-17.96c-4.62,0-8.37-3.75-8.37-8.37v-8.43c0-4.62,3.75-8.37,8.37-8.37h17.96c4.62,0,8.37,3.75,8.37,8.37v8.43c0,4.62-3.75,8.37-8.37,8.37"/>
          <path class="cls-2" d="M91.97,180.1h-17.96c-4.62,0-8.37-3.75-8.37-8.37v-8.43c0-4.62,3.75-8.37,8.37-8.37h17.96c4.62,0,8.37,3.75,8.37,8.37v8.43c0,4.62-3.75,8.37-8.37,8.37"/>
          <path class="cls-2" d="M137.07,180.1h-17.96c-4.62,0-8.37-3.75-8.37-8.37v-8.43c0-4.62,3.75-8.37,8.37-8.37h17.96c4.62,0,8.37,3.75,8.37,8.37v8.43c0,4.62-3.75,8.37-8.37,8.37"/>
          <path class="cls-2" d="M180.44,180.1h-17.96c-4.62,0-8.37-3.75-8.37-8.37v-8.43c0-4.62,3.75-8.37,8.37-8.37h17.96c4.62,0,8.37,3.75,8.37,8.37v8.43c0,4.62-3.75,8.37-8.37,8.37"/>
          <path class="cls-2" d="M48.6,220.77h-17.96c-4.62,0-8.37-3.75-8.37-8.37v-8.43c0-4.62,3.75-8.37,8.37-8.37h17.96c4.62,0,8.37,3.75,8.37,8.37v8.43c0,4.62-3.75,8.37-8.37,8.37"/>
          <path class="cls-2" d="M91.97,220.77h-17.96c-4.62,0-8.37-3.75-8.37-8.37v-8.43c0-4.62,3.75-8.37,8.37-8.37h17.96c4.62,0,8.37,3.75,8.37,8.37v8.43c0,4.62-3.75,8.37-8.37,8.37"/>
          <path class="cls-2" d="M137.07,220.77h-17.96c-4.62,0-8.37-3.75-8.37-8.37v-8.43c0-4.62,3.75-8.37,8.37-8.37h17.96c4.62,0,8.37,3.75,8.37,8.37v8.43c0,4.62-3.75,8.37-8.37,8.37"/>
          <path class="cls-2" d="M48.6,261.44h-17.96c-4.62,0-8.37-3.75-8.37-8.37v-8.43c0-4.62,3.75-8.37,8.37-8.37h17.96c4.62,0,8.37,3.75,8.37,8.37v8.43c0,4.62-3.75,8.37-8.37,8.37"/>
          <path class="cls-2" d="M91.97,261.44h-17.96c-4.62,0-8.37-3.75-8.37-8.37v-8.43c0-4.62,3.75-8.37,8.37-8.37h17.96c4.62,0,8.37,3.75,8.37,8.37v8.43c0,4.62-3.75,8.37-8.37,8.37"/>
          <path class="cls-2" d="M137.07,261.44h-17.96c-4.62,0-8.37-3.75-8.37-8.37v-8.43c0-4.62,3.75-8.37,8.37-8.37h17.96c4.62,0,8.37,3.75,8.37,8.37v8.43c0,4.62-3.75,8.37-8.37,8.37"/>
          <path class="cls-2" d="M180.44,261.44h-17.96c-4.62,0-8.37-3.75-8.37-8.37v-49.1c0-4.62,3.75-8.37,8.37-8.37h17.96c4.62,0,8.37,3.75,8.37,8.37v49.1c0,4.62-3.75,8.37-8.37,8.37"/>
        </g>
      </g>
    </g>
  </g>
</svg>