<?xml version="1.0" encoding="UTF-8"?>
<svg id="Layer_2" data-name="Layer 2" xmlns="http://www.w3.org/2000/svg" xmlns:xlink="http://www.w3.org/1999/xlink" viewBox="0 0 164.24 233.94">
  <defs>
    <style>
      .cls-1 {
        stroke: #edb72f;
        stroke-miterlimit: 10;
        stroke-width: 5.09px;
      }

      .cls-1, .cls-2 {
        fill: none;
      }

      .cls-2, .cls-3, .cls-4, .cls-5 {
        stroke-width: 0px;
      }

      .cls-6 {
        clip-path: url(#clippath-1);
      }

      .cls-3 {
        fill: #f7931e;
      }

      .cls-7 {
        clip-path: url(#clippath);
      }

      .cls-4 {
        fill: #ddab0b;
      }

      .cls-5 {
        fill: #e07e0a;
      }
    </style>
    <clipPath id="clippath">
      <rect class="cls-2" y="0" width="164.24" height="233.94"/>
    </clipPath>
    <clipPath id="clippath-1">
      <rect class="cls-2" y="0" width="164.24" height="233.94"/>
    </clipPath>
  </defs>
  <g id="Layer_1-2" data-name="Layer 1">
    <g id="Mynthög">
      <g class="cls-7">
        <g class="cls-6">
          <path class="cls-4" d="M161.69,167.13v30.02c0,18.91-35.63,34.25-79.58,34.25S2.55,216.06,2.55,197.15v-30.02c0,5.38,2.89,10.49,8.04,15.01,12.92,11.39,40.1,19.24,71.53,19.24s58.61-7.84,71.54-19.24c5.15-4.53,8.04-9.63,8.04-15.01"/>
          <path class="cls-1" d="M161.69,167.13v30.02c0,18.91-35.63,34.25-79.58,34.25S2.55,216.06,2.55,197.15v-30.02c0,5.38,2.89,10.49,8.04,15.01,12.92,11.39,40.1,19.24,71.53,19.24s58.61-7.84,71.54-19.24c5.15-4.53,8.04-9.63,8.04-15.01Z"/>
          <path class="cls-5" d="M153.65,182.14c-12.93,11.39-40.1,19.24-71.54,19.24s-58.61-7.84-71.53-19.24c12.92-11.41,40.1-19.25,71.53-19.25s58.61,7.84,71.54,19.25"/>
          <path class="cls-1" d="M153.65,182.14c-12.93,11.39-40.1,19.24-71.54,19.24s-58.61-7.84-71.53-19.24c12.92-11.41,40.1-19.25,71.53-19.25s58.61,7.84,71.54,19.25Z"/>
          <path class="cls-5" d="M161.69,167.13c0,5.38-2.89,10.49-8.04,15.01-12.93,11.39-40.1,19.24-71.54,19.24s-58.61-7.84-71.53-19.24c-5.15-4.53-8.04-9.63-8.04-15.01,0-18.91,35.63-34.25,79.57-34.25s79.58,15.34,79.58,34.25"/>
          <path class="cls-1" d="M161.69,167.13c0,5.38-2.89,10.49-8.04,15.01-12.93,11.39-40.1,19.24-71.54,19.24s-58.61-7.84-71.53-19.24c-5.15-4.53-8.04-9.63-8.04-15.01,0-18.91,35.63-34.25,79.57-34.25s79.58,15.34,79.58,34.25Z"/>
          <path class="cls-4" d="M161.69,134.99v30.02c0,18.91-35.63,34.25-79.58,34.25S2.55,183.93,2.55,165.01v-30.02c0,5.38,2.89,10.49,8.04,15.01,12.92,11.39,40.1,19.24,71.53,19.24s58.61-7.84,71.54-19.24c5.15-4.53,8.04-9.63,8.04-15.01"/>
          <path class="cls-1" d="M161.69,134.99v30.02c0,18.91-35.63,34.25-79.58,34.25S2.55,183.93,2.55,165.01v-30.02c0,5.38,2.89,10.49,8.04,15.01,12.92,11.39,40.1,19.24,71.53,19.24s58.61-7.84,71.54-19.24c5.15-4.53,8.04-9.63,8.04-15.01Z"/>
          <path class="cls-3" d="M153.65,150.01c-12.93,11.39-40.1,19.24-71.54,19.24s-58.61-7.84-71.53-19.24c12.92-11.41,40.1-19.25,71.53-19.25s58.61,7.84,71.54,19.25"/>
          <path class="cls-1" d="M153.65,150.01c-12.93,11.39-40.1,19.24-71.54,19.24s-58.61-7.84-71.53-19.24c12.92-11.41,40.1-19.25,71.53-19.25s58.61,7.84,71.54,19.25Z"/>
          <path class="cls-3" d="M161.69,134.99c0,5.38-2.89,10.49-8.04,15.01-12.93,11.39-40.1,19.24-71.54,19.24s-58.61-7.84-71.53-19.24c-5.15-4.53-8.04-9.63-8.04-15.01,0-18.91,35.63-34.25,79.57-34.25s79.58,15.34,79.58,34.25"/>
          <path class="cls-1" d="M161.69,134.99c0,5.38-2.89,10.49-8.04,15.01-12.93,11.39-40.1,19.24-71.54,19.24s-58.61-7.84-71.53-19.24c-5.15-4.53-8.04-9.63-8.04-15.01,0-18.91,35.63-34.25,79.57-34.25s79.58,15.34,79.58,34.25Z"/>
          <path class="cls-4" d="M161.69,101.8v30.02c0,18.91-35.63,34.25-79.58,34.25S2.55,150.73,2.55,131.82v-30.02c0,5.38,2.89,10.49,8.04,15.01,12.92,11.39,40.1,19.24,71.53,19.24s58.61-7.84,71.54-19.24c5.15-4.53,8.04-9.63,8.04-15.01"/>
          <path class="cls-1" d="M161.69,101.8v30.02c0,18.91-35.63,34.25-79.58,34.25S2.55,150.73,2.55,131.82v-30.02c0,5.38,2.89,10.49,8.04,15.01,12.92,11.39,40.1,19.24,71.53,19.24s58.61-7.84,71.54-19.24c5.15-4.53,8.04-9.63,8.04-15.01Z"/>
          <path class="cls-5" d="M153.65,116.81c-12.93,11.39-40.1,19.24-71.54,19.24s-58.61-7.84-71.53-19.24c12.92-11.41,40.1-19.25,71.53-19.25s58.61,7.84,71.54,19.25"/>
          <path class="cls-1" d="M153.65,116.81c-12.93,11.39-40.1,19.24-71.54,19.24s-58.61-7.84-71.53-19.24c12.92-11.41,40.1-19.25,71.53-19.25s58.61,7.84,71.54,19.25Z"/>
          <path class="cls-5" d="M161.69,101.8c0,5.38-2.89,10.49-8.04,15.01-12.93,11.39-40.1,19.24-71.54,19.24s-58.61-7.84-71.53-19.24c-5.15-4.53-8.04-9.63-8.04-15.01,0-18.91,35.63-34.25,79.57-34.25s79.58,15.34,79.58,34.25"/>
          <path class="cls-1" d="M161.69,101.8c0,5.38-2.89,10.49-8.04,15.01-12.93,11.39-40.1,19.24-71.54,19.24s-58.61-7.84-71.53-19.24c-5.15-4.53-8.04-9.63-8.04-15.01,0-18.91,35.63-34.25,79.57-34.25s79.58,15.34,79.58,34.25Z"/>
          <path class="cls-4" d="M161.69,69.67v30.02c0,18.91-35.63,34.25-79.58,34.25S2.55,118.6,2.55,99.69v-30.02c0,5.38,2.89,10.49,8.04,15.01,12.92,11.39,40.1,19.24,71.53,19.24s58.61-7.84,71.54-19.24c5.15-4.53,8.04-9.63,8.04-15.01"/>
          <path class="cls-1" d="M161.69,69.67v30.02c0,18.91-35.63,34.25-79.58,34.25S2.55,118.6,2.55,99.69v-30.02c0,5.38,2.89,10.49,8.04,15.01,12.92,11.39,40.1,19.24,71.53,19.24s58.61-7.84,71.54-19.24c5.15-4.53,8.04-9.63,8.04-15.01Z"/>
          <path class="cls-3" d="M153.65,84.68c-12.93,11.39-40.1,19.24-71.54,19.24s-58.61-7.84-71.53-19.24c12.92-11.41,40.1-19.25,71.53-19.25s58.61,7.84,71.54,19.25"/>
          <path class="cls-1" d="M153.65,84.68c-12.93,11.39-40.1,19.24-71.54,19.24s-58.61-7.84-71.53-19.24c12.92-11.41,40.1-19.25,71.53-19.25s58.61,7.84,71.54,19.25Z"/>
          <path class="cls-3" d="M161.69,69.67c0,5.38-2.89,10.49-8.04,15.01-12.93,11.39-40.1,19.24-71.54,19.24s-58.61-7.84-71.53-19.24c-5.15-4.53-8.04-9.63-8.04-15.01,0-18.91,35.63-34.25,79.57-34.25s79.58,15.34,79.58,34.25"/>
          <path class="cls-1" d="M161.69,69.67c0,5.38-2.89,10.49-8.04,15.01-12.93,11.39-40.1,19.24-71.54,19.24s-58.61-7.84-71.53-19.24c-5.15-4.53-8.04-9.63-8.04-15.01,0-18.91,35.63-34.25,79.57-34.25s79.58,15.34,79.58,34.25Z"/>
          <path class="cls-4" d="M161.69,36.79v30.02c0,18.91-35.63,34.25-79.58,34.25S2.55,85.73,2.55,66.82v-30.02c0,5.38,2.89,10.49,8.04,15.01,12.92,11.39,40.1,19.24,71.53,19.24s58.61-7.84,71.54-19.24c5.15-4.53,8.04-9.63,8.04-15.01"/>
          <path class="cls-1" d="M161.69,36.79v30.02c0,18.91-35.63,34.25-79.58,34.25S2.55,85.73,2.55,66.82v-30.02c0,5.38,2.89,10.49,8.04,15.01,12.92,11.39,40.1,19.24,71.53,19.24s58.61-7.84,71.54-19.24c5.15-4.53,8.04-9.63,8.04-15.01Z"/>
          <path class="cls-4" d="M153.65,51.81c-12.93,11.39-40.1,19.24-71.54,19.24s-58.61-7.84-71.53-19.24c12.92-11.41,40.1-19.25,71.53-19.25s58.61,7.84,71.54,19.25"/>
          <path class="cls-1" d="M153.65,51.81c-12.93,11.39-40.1,19.24-71.54,19.24s-58.61-7.84-71.53-19.24c12.92-11.41,40.1-19.25,71.53-19.25s58.61,7.84,71.54,19.25Z"/>
          <path class="cls-4" d="M161.69,36.79c0,5.38-2.89,10.49-8.04,15.01-12.93,11.39-40.1,19.24-71.54,19.24s-58.61-7.84-71.53-19.24c-5.15-4.53-8.04-9.63-8.04-15.01C2.55,17.88,38.17,2.55,82.11,2.55s79.58,15.34,79.58,34.25"/>
          <path class="cls-1" d="M161.69,36.79c0,5.38-2.89,10.49-8.04,15.01-12.93,11.39-40.1,19.24-71.54,19.24s-58.61-7.84-71.53-19.24c-5.15-4.53-8.04-9.63-8.04-15.01C2.55,17.88,38.17,2.55,82.11,2.55s79.58,15.34,79.58,34.25Z"/>
        </g>
      </g>
    </g>
  </g>
</svg>