<?xml version="1.0" encoding="UTF-8"?>
<svg id="Layer_1" data-name="Layer 1" xmlns="http://www.w3.org/2000/svg" viewBox="0 0 961 206">
  <defs>
    <style>
      .cls-1 {
        fill: #fff;
        stroke: #fff;
      }

      .cls-1, .cls-2 {
        stroke-linecap: round;
        stroke-linejoin: round;
        stroke-width: 4px;
      }

      .cls-2 {
        fill: #4753a3;
        stroke: #4753a3;
      }
    </style>
  </defs>
  <path class="cls-2" d="M123,51c0,15.78-7.46,29.82-19.05,38.78-8.28,6.41-18.67,10.22-29.95,10.22s-21.29-3.67-29.5-9.87c-11.84-8.95-19.5-23.14-19.5-39.13C25,23.94,46.94,2,74,2s49,21.94,49,49Z"/>
  <path class="cls-2" d="M127.31,152.35l-24.31-21.35,11.6,73h-31l-3.97-29h-9.66l-3.97,29h-31l10-73-23.53,21.35L2,126l42.5-35.87c8.21,6.2,18.43,9.87,29.5,9.87s21.67-3.81,29.95-10.22l42.05,37.22-18.69,25.35Z"/>
  <path class="cls-1" d="M286,51c0,15.78-7.46,29.82-19.05,38.78-8.28,6.41-18.67,10.22-29.95,10.22s-21.29-3.67-29.5-9.87c-11.84-8.95-19.5-23.14-19.5-39.13,0-27.06,21.94-49,49-49s49,21.94,49,49Z"/>
  <path class="cls-1" d="M290.31,152.35l-24.31-21.35,11.6,73h-31l-3.97-29h-9.66l-3.97,29h-31l10-73-23.53,21.35-19.47-26.35,42.5-35.87c8.21,6.2,18.43,9.87,29.5,9.87s21.67-3.81,29.95-10.22l42.05,37.22-18.69,25.35Z"/>
  <path class="cls-1" d="M449,51c0,15.78-7.46,29.82-19.05,38.78-8.28,6.41-18.67,10.22-29.95,10.22s-21.29-3.67-29.5-9.87c-11.84-8.95-19.5-23.14-19.5-39.13,0-27.06,21.94-49,49-49s49,21.94,49,49Z"/>
  <path class="cls-1" d="M453.31,152.35l-24.31-21.35,11.6,73h-31l-3.97-29h-9.66l-3.97,29h-31l10-73-23.53,21.35-19.47-26.35,42.5-35.87c8.21,6.2,18.43,9.87,29.5,9.87s21.67-3.81,29.95-10.22l42.05,37.22-18.69,25.35Z"/>
  <path class="cls-1" d="M612,51c0,15.78-7.46,29.82-19.05,38.78-8.28,6.41-18.67,10.22-29.95,10.22s-21.29-3.67-29.5-9.87c-11.84-8.95-19.5-23.14-19.5-39.13,0-27.06,21.94-49,49-49s49,21.94,49,49Z"/>
  <path class="cls-1" d="M616.31,152.35l-24.31-21.35,11.6,73h-31l-3.97-29h-9.66l-3.97,29h-31l10-73-23.53,21.35-19.47-26.35,42.5-35.87c8.21,6.2,18.43,9.87,29.5,9.87s21.67-3.81,29.95-10.22l42.05,37.22-18.69,25.35Z"/>
  <path class="cls-1" d="M772,51c0,15.78-7.46,29.82-19.05,38.78-8.28,6.41-18.67,10.22-29.95,10.22s-21.29-3.67-29.5-9.87c-11.84-8.95-19.5-23.14-19.5-39.13,0-27.06,21.94-49,49-49s49,21.94,49,49Z"/>
  <path class="cls-1" d="M776.31,152.35l-24.31-21.35,11.6,73h-31l-3.97-29h-9.66l-3.97,29h-31l10-73-23.53,21.35-19.47-26.35,42.5-35.87c8.21,6.2,18.43,9.87,29.5,9.87s21.67-3.81,29.95-10.22l42.05,37.22-18.69,25.35Z"/>
  <path class="cls-1" d="M936,51c0,15.78-7.46,29.82-19.05,38.78-8.28,6.41-18.67,10.22-29.95,10.22s-21.29-3.67-29.5-9.87c-11.84-8.95-19.5-23.14-19.5-39.13,0-27.06,21.94-49,49-49s49,21.94,49,49Z"/>
  <path class="cls-1" d="M940.31,152.35l-24.31-21.35,11.6,73h-31l-3.97-29h-9.66l-3.97,29h-31l10-73-23.53,21.35-19.47-26.35,42.5-35.87c8.21,6.2,18.43,9.87,29.5,9.87s21.67-3.81,29.95-10.22l42.05,37.22-18.69,25.35Z"/>
</svg>