<?xml version="1.0" encoding="UTF-8"?>
<svg id="Layer_1" data-name="Layer 1" xmlns="http://www.w3.org/2000/svg" xmlns:xlink="http://www.w3.org/1999/xlink" viewBox="0 0 200 184.14">
  <defs>
    <style>
      .cls-1 {
        fill: #f180a7;
      }

      .cls-1, .cls-2, .cls-3, .cls-4, .cls-5 {
        stroke-width: 0px;
      }

      .cls-2 {
        fill: #fdc467;
      }

      .cls-6 {
        stroke-width: 2.28px;
      }

      .cls-6, .cls-4, .cls-7, .cls-8 {
        fill: none;
      }

      .cls-6, .cls-8 {
        stroke: #000;
        stroke-linejoin: round;
      }

      .cls-3 {
        fill: #e6e6e6;
      }

      .cls-9 {
        clip-path: url(#clippath-2);
      }

      .cls-10 {
        clip-path: url(#clippath-1);
      }

      .cls-5 {
        fill: #fff;
      }

      .cls-11 {
        stroke: #616e93;
      }

      .cls-11, .cls-7 {
        stroke-miterlimit: 10;
      }

      .cls-12 {
        clip-path: url(#clippath);
      }

      .cls-7 {
        stroke: #231f20;
        stroke-width: 1.45px;
      }

      .cls-8 {
        stroke-width: 3.43px;
      }
    </style>
    <clipPath id="clippath">
      <rect class="cls-4" x="38.95" y="10.72" width="33.55" height="175.7" transform="translate(-39.46 37.24) rotate(-27.73)"/>
    </clipPath>
    <clipPath id="clippath-1">
      <rect class="cls-4" x="38.95" y="10.72" width="33.55" height="175.7" transform="translate(-39.46 37.24) rotate(-27.73)"/>
    </clipPath>
    <clipPath id="clippath-2">
      <rect class="cls-4" x="38.95" y="10.72" width="33.55" height="175.7" transform="translate(-39.46 37.24) rotate(-27.73)"/>
    </clipPath>
  </defs>
  <rect class="cls-5" x="56" width="144" height="180"/>
  <line class="cls-11" x1="62" y1="19" x2="193" y2="19"/>
  <line class="cls-11" x1="62" y1="35.5" x2="193" y2="35.5"/>
  <line class="cls-11" x1="62" y1="51.5" x2="193" y2="51.5"/>
  <line class="cls-11" x1="62" y1="67.5" x2="193" y2="67.5"/>
  <line class="cls-11" x1="62" y1="83.5" x2="193" y2="83.5"/>
  <line class="cls-11" x1="62" y1="98.5" x2="193" y2="98.5"/>
  <line class="cls-11" x1="62" y1="113.5" x2="193" y2="113.5"/>
  <line class="cls-11" x1="62" y1="128.5" x2="193" y2="128.5"/>
  <line class="cls-11" x1="62" y1="143.5" x2="193" y2="143.5"/>
  <line class="cls-11" x1="61" y1="158.5" x2="192" y2="158.5"/>
  <g id="Bättre_penna" data-name="Bättre penna">
    <g class="cls-12">
      <polyline class="cls-3" points="95.21 175.56 82.7 166.24 95.99 159.95"/>
      <polygon class="cls-3" points="96.79 158.84 82.16 166.52 69.4 158.02 95.4 144.36 96.79 158.84"/>
      <rect class="cls-1" x="5.8" y="21.71" width="29.37" height="23.36" transform="translate(-13.18 13.37) rotate(-27.73)"/>
      <rect class="cls-2" x="40.39" y="40.46" width="29.37" height="117.47" transform="translate(-39.83 37.01) rotate(-27.73)"/>
      <g class="cls-10">
        <rect class="cls-7" x="40.39" y="40.46" width="29.37" height="117.47" transform="translate(-39.83 37.01) rotate(-27.73)"/>
      </g>
      <g class="cls-9">
        <path class="cls-8" d="M69.87,157.38l26.27-13.81L31.26,20.14c-1.31-2.5-4.4-3.46-6.9-2.15L7.14,27.04c-2.5,1.31-3.46,4.4-2.15,6.9l64.88,123.44Z"/>
        <polygon class="cls-8" points="95.69 174.62 96.14 143.58 69.87 157.38 95.69 174.62"/>
        <polygon class="cls-6" points="95.69 174.62 95.91 159.55 83.15 166.25 95.69 174.62"/>
        <line class="cls-6" x1="41.78" y1="40.14" x2="15.51" y2="53.95"/>
        <line class="cls-6" x1="39.5" y1="35.81" x2="13.23" y2="49.61"/>
      </g>
      <line class="cls-6" x1="87.42" y1="147.6" x2="33.29" y2="44.6"/>
      <line class="cls-6" x1="78.13" y1="152.48" x2="24" y2="49.49"/>
    </g>
  </g>
</svg>