<?xml version="1.0" encoding="UTF-8"?>
<svg id="Layer_2" data-name="Layer 2" xmlns="http://www.w3.org/2000/svg" xmlns:xlink="http://www.w3.org/1999/xlink" viewBox="0 0 755.06 261.74">
  <defs>
    <style>
      .cls-1 {
        fill: #f16240;
      }

      .cls-1, .cls-2, .cls-3 {
        stroke-width: 0px;
      }

      .cls-4 {
        letter-spacing: -.06em;
      }

      .cls-5 {
        stroke: #000;
      }

      .cls-5, .cls-6 {
        stroke-linecap: round;
        stroke-linejoin: round;
        stroke-width: 2.61px;
      }

      .cls-5, .cls-6, .cls-2 {
        fill: none;
      }

      .cls-7 {
        letter-spacing: -.02em;
      }

      .cls-8 {
        font-size: 11.75px;
      }

      .cls-8, .cls-9 {
        font-family: FuturaPT-Demi, 'Futura PT';
        font-weight: 300;
      }

      .cls-6 {
        stroke: #231f20;
      }

      .cls-10 {
        letter-spacing: -.02em;
      }

      .cls-11 {
        letter-spacing: .02em;
      }

      .cls-12 {
        clip-path: url(#clippath-2);
      }

      .cls-13 {
        letter-spacing: -.02em;
      }

      .cls-14 {
        letter-spacing: -.02em;
      }

      .cls-15 {
        letter-spacing: .02em;
      }

      .cls-16 {
        clip-path: url(#clippath-1);
      }

      .cls-3 {
        fill: #4753a3;
      }

      .cls-17 {
        letter-spacing: 0em;
      }

      .cls-18 {
        letter-spacing: -.01em;
      }

      .cls-19 {
        letter-spacing: -.04em;
      }

      .cls-20 {
        letter-spacing: 0em;
      }

      .cls-21 {
        clip-path: url(#clippath);
      }

      .cls-22 {
        letter-spacing: -.03em;
      }

      .cls-9 {
        font-size: 23.5px;
      }

      .cls-23 {
        letter-spacing: .04em;
      }

      .cls-24 {
        letter-spacing: .02em;
      }

      .cls-25 {
        letter-spacing: -.03em;
      }

      .cls-26 {
        letter-spacing: 0em;
      }

      .cls-27 {
        letter-spacing: 0em;
      }

      .cls-28 {
        letter-spacing: .02em;
      }

      .cls-29 {
        letter-spacing: -.02em;
      }

      .cls-30 {
        letter-spacing: -.04em;
      }
    </style>
    <clipPath id="clippath">
      <rect class="cls-2" y="0" width="755.06" height="261.74"/>
    </clipPath>
    <clipPath id="clippath-1">
      <rect class="cls-2" y="0" width="755.06" height="261.74"/>
    </clipPath>
    <clipPath id="clippath-2">
      <rect class="cls-2" y="0" width="755.06" height="261.74"/>
    </clipPath>
  </defs>
  <g id="Layer_1-2" data-name="Layer 1">
    <g id="statistik">
      <g class="cls-21">
        <rect class="cls-1" x="175.44" y="14.03" width="51.89" height="29.37"/>
        <rect class="cls-6" x="175.44" y="14.03" width="51.89" height="29.37"/>
        <rect class="cls-1" x="175.44" y="53.2" width="171.34" height="29.37"/>
        <rect class="cls-6" x="175.44" y="53.2" width="171.34" height="29.37"/>
        <rect class="cls-1" x="175.51" y="92.85" width="325.47" height="29.37"/>
        <rect class="cls-6" x="175.51" y="92.85" width="325.47" height="29.37"/>
        <rect class="cls-1" x="175.51" y="133.97" width="528.13" height="29.37"/>
        <rect class="cls-6" x="175.51" y="133.97" width="528.13" height="29.37"/>
        <rect class="cls-3" x="175.51" y="176.07" width="284.35" height="29.37"/>
        <rect class="cls-5" x="175.51" y="176.07" width="284.35" height="29.37"/>
        <rect class="cls-3" x="175.51" y="216.53" width="11.1" height="29.37"/>
        <rect class="cls-5" x="175.51" y="216.53" width="11.1" height="29.37"/>
        <text class="cls-8" transform="translate(45.92 32.52)"><tspan x="0" y="0">HÖGIN</tspan><tspan class="cls-19" x="38.98" y="0">K</tspan><tspan x="45.97" y="0">OM</tspan><tspan class="cls-20" x="65.59" y="0">S</tspan><tspan x="71.76" y="0">T</tspan><tspan class="cls-15" x="76.95" y="0">L</tspan><tspan class="cls-27" x="82.2" y="0">ÄNDER</tspan></text>
        <text class="cls-8" transform="translate(5.46 74.62)"><tspan class="cls-7" x="0" y="0">Ö</tspan><tspan class="cls-27" x="9.16" y="0">VRE-MEDELIN</tspan><tspan class="cls-19" x="80.74" y="0">K</tspan><tspan x="87.73" y="0">OM</tspan><tspan class="cls-18" x="107.35" y="0">S</tspan><tspan class="cls-17" x="113.5" y="0">T</tspan><tspan class="cls-28" x="118.69" y="0">L</tspan><tspan x="123.95" y="0">ÄNDER</tspan></text>
        <g class="cls-16">
          <text class="cls-8" transform="translate(0 110.84)"><tspan class="cls-11" x="0" y="0">L</tspan><tspan class="cls-25" x="5.24" y="0">Ä</tspan><tspan class="cls-17" x="12.79" y="0">GRE-MEDELIN</tspan><tspan class="cls-19" x="85.78" y="0">K</tspan><tspan x="92.77" y="0">OM</tspan><tspan class="cls-18" x="112.39" y="0">S</tspan><tspan x="118.54" y="0">T</tspan><tspan class="cls-15" x="123.74" y="0">L</tspan><tspan x="128.99" y="0">ÄNDER</tspan></text>
        </g>
        <text class="cls-8" transform="translate(39.07 152.95)"><tspan class="cls-15" x="0" y="0">L</tspan><tspan class="cls-22" x="5.25" y="0">Ä</tspan><tspan class="cls-17" x="12.79" y="0">GREIN</tspan><tspan class="cls-30" x="46.79" y="0">K</tspan><tspan x="53.77" y="0">OM</tspan><tspan class="cls-18" x="73.39" y="0">S</tspan><tspan x="79.55" y="0">T</tspan><tspan class="cls-15" x="84.74" y="0">L</tspan><tspan x="89.99" y="0">ÄNDER</tspan></text>
        <text class="cls-8" transform="translate(18.7 194.58)"><tspan x="0" y="0">GENOMSNI</tspan><tspan class="cls-23" x="62.29" y="0">T</tspan><tspan x="67.94" y="0">TLIGT G</tspan><tspan class="cls-10" x="107.33" y="0">L</tspan><tspan class="cls-26" x="112.09" y="0">OBA</tspan><tspan class="cls-29" x="136.08" y="0">L</tspan><tspan x="140.88" y="0">T</tspan></text>
        <text class="cls-8" transform="translate(19.35 236.03)"><tspan x="0" y="0">B</tspan><tspan class="cls-13" x="6.7" y="0">Ä</tspan><tspan class="cls-20" x="14.35" y="0">S</tspan><tspan class="cls-17" x="20.51" y="0">T PRE</tspan><tspan class="cls-18" x="47.29" y="0">S</tspan><tspan x="53.44" y="0">TERANDE </tspan><tspan class="cls-28" x="104.68" y="0">L</tspan><tspan x="109.93" y="0">ÄNDER</tspan></text>
        <g class="cls-12">
          <line class="cls-5" x1="175.44" y1="1.31" x2="175.51" y2="260.44"/>
        </g>
        <text class="cls-9" transform="translate(238.79 39.32)"><tspan x="0" y="0">9%</tspan></text>
        <text class="cls-9" transform="translate(355.11 77.17)"><tspan class="cls-14" x="0" y="0">2</tspan><tspan x="12.81" y="0">9%</tspan></text>
        <text class="cls-9" transform="translate(514.09 116.34)"><tspan x="0" y="0">55%</tspan></text>
        <text class="cls-9" transform="translate(709.64 156.15)"><tspan class="cls-24" x="0" y="0">9</tspan><tspan x="13.89" y="0">0%</tspan></text>
        <text class="cls-9" transform="translate(472.97 199.88)"><tspan x="0" y="0">48%</tspan></text>
        <text class="cls-9" transform="translate(191.44 239.05)"><tspan class="cls-4" x="0" y="0">1</tspan><tspan x="11.98" y="0">,6-3%</tspan></text>
      </g>
    </g>
  </g>
</svg>