<?xml version="1.0" encoding="UTF-8"?>
<svg id="Layer_2" data-name="Layer 2" xmlns="http://www.w3.org/2000/svg" xmlns:xlink="http://www.w3.org/1999/xlink" viewBox="0 0 254.93 159.59">
  <defs>
    <style>
      .cls-1 {
        stroke-miterlimit: 10;
      }

      .cls-1, .cls-2, .cls-3 {
        fill: none;
      }

      .cls-1, .cls-3 {
        stroke: #231f20;
        stroke-width: .91px;
      }

      .cls-4, .cls-2 {
        stroke-width: 0px;
      }

      .cls-5 {
        clip-path: url(#clippath-1);
      }

      .cls-3 {
        stroke-linecap: round;
        stroke-linejoin: round;
      }

      .cls-6 {
        clip-path: url(#clippath);
      }
    </style>
    <clipPath id="clippath">
      <rect class="cls-2" width="254.93" height="159.59"/>
    </clipPath>
    <clipPath id="clippath-1">
      <rect class="cls-2" width="254.93" height="159.59"/>
    </clipPath>
  </defs>
  <g id="Layer_1-2" data-name="Layer 1">
    <g id="Svart_logga" data-name="Svart logga">
      <g class="cls-6">
        <g class="cls-5">
          <path class="cls-4" d="M245.34,137.18h-9.94v-72.95h3.81l-3.81-14.46-57.23.05v-14.07l3.32-3.4L127.46.52l-54.15,31.6,3.45,3.62v14.15l-57.22.05-3.81,14.28h3.8v72.95h-9.93c-5.03,0-9.14,4.11-9.14,9.14v3.67c0,5.03,4.11,9.14,9.14,9.14h235.74c5.03,0,9.14-4.11,9.14-9.14v-3.67c0-5.03-4.11-9.14-9.14-9.14M54.3,122.54h-17.62v-12.04c0-4.87,3.95-8.82,8.81-8.82,2.44,0,4.64.99,6.23,2.58,1.6,1.6,2.58,3.8,2.58,6.24v12.04ZM54.3,91.99h-17.62v-12.04c0-4.87,3.95-8.81,8.81-8.81,2.44,0,4.64.99,6.23,2.58,1.6,1.59,2.58,3.8,2.58,6.23v12.04ZM127.46,20.64c6.49,0,11.75,5.26,11.75,11.74s-5.26,11.75-11.75,11.75-11.75-5.26-11.75-11.75,5.26-11.74,11.75-11.74M136.2,59.4v12.04h-17.63v-12.04c0-.42.03-.83.08-1.23.6-4.29,4.28-7.59,8.73-7.59,2.44,0,4.65.98,6.24,2.58,1.32,1.33,2.22,3.06,2.5,5,.05.4.08.82.08,1.23M94.68,59.4c0-.42.03-.83.08-1.23.6-4.29,4.28-7.59,8.73-7.59,2.44,0,4.65.98,6.24,2.58,1.32,1.33,2.22,3.06,2.5,5,.05.4.08.82.08,1.23v12.04h-17.63v-12.04ZM144.72,146.57h-34.51v-28.64c0-9.54,7.72-17.26,17.25-17.26,4.76,0,9.08,1.93,12.2,5.06,3.12,3.12,5.06,7.43,5.06,12.2v28.64ZM160.24,71.44h-17.62v-12.04c0-.42.03-.83.08-1.23.6-4.29,4.28-7.59,8.73-7.59,2.44,0,4.64.98,6.23,2.58,1.33,1.33,2.22,3.06,2.5,5,.05.4.08.82.08,1.23v12.04ZM215.59,123.06h-17.62v-12.03c0-4.88,3.95-8.82,8.81-8.82,2.43,0,4.64.98,6.23,2.58,1.59,1.6,2.58,3.8,2.58,6.24v12.03ZM215.59,92.52h-17.62v-12.04c0-4.87,3.95-8.81,8.81-8.81,2.43,0,4.64.98,6.23,2.58,1.59,1.59,2.58,3.79,2.58,6.23v12.04Z"/>
          <path class="cls-1" d="M245.34,137.18h-9.94v-72.95h3.81l-3.81-14.46-57.23.05v-14.07l3.32-3.4L127.46.52l-54.15,31.6,3.45,3.62v14.15l-57.22.05-3.81,14.28h3.8v72.95h-9.93c-5.03,0-9.14,4.11-9.14,9.14v3.67c0,5.03,4.11,9.14,9.14,9.14h235.74c5.03,0,9.14-4.11,9.14-9.14v-3.67c0-5.03-4.11-9.14-9.14-9.14ZM54.3,122.54h-17.62v-12.04c0-4.87,3.95-8.82,8.81-8.82,2.44,0,4.64.99,6.23,2.58,1.6,1.6,2.58,3.8,2.58,6.24v12.04ZM54.3,91.99h-17.62v-12.04c0-4.87,3.95-8.81,8.81-8.81,2.44,0,4.64.99,6.23,2.58,1.6,1.59,2.58,3.8,2.58,6.23v12.04ZM127.46,20.64c6.49,0,11.75,5.26,11.75,11.74s-5.26,11.75-11.75,11.75-11.75-5.26-11.75-11.75,5.26-11.74,11.75-11.74ZM136.2,59.4v12.04h-17.63v-12.04c0-.42.03-.83.08-1.23.6-4.29,4.28-7.59,8.73-7.59,2.44,0,4.65.98,6.24,2.58,1.32,1.33,2.22,3.06,2.5,5,.05.4.08.82.08,1.23ZM94.68,59.4c0-.42.03-.83.08-1.23.6-4.29,4.28-7.59,8.73-7.59,2.44,0,4.65.98,6.24,2.58,1.32,1.33,2.22,3.06,2.5,5,.05.4.08.82.08,1.23v12.04h-17.63v-12.04ZM144.72,146.57h-34.51v-28.64c0-9.54,7.72-17.26,17.25-17.26,4.76,0,9.08,1.93,12.2,5.06,3.12,3.12,5.06,7.43,5.06,12.2v28.64ZM160.24,71.44h-17.62v-12.04c0-.42.03-.83.08-1.23.6-4.29,4.28-7.59,8.73-7.59,2.44,0,4.64.98,6.23,2.58,1.33,1.33,2.22,3.06,2.5,5,.05.4.08.82.08,1.23v12.04ZM215.59,123.06h-17.62v-12.03c0-4.88,3.95-8.82,8.81-8.82,2.43,0,4.64.98,6.23,2.58,1.59,1.6,2.58,3.8,2.58,6.24v12.03ZM215.59,92.52h-17.62v-12.04c0-4.87,3.95-8.81,8.81-8.81,2.43,0,4.64.98,6.23,2.58,1.59,1.59,2.58,3.79,2.58,6.23v12.04Z"/>
          <line class="cls-3" x1="127.39" y1="32.83" x2="127.39" y2="23.45"/>
          <line class="cls-3" x1="127.39" y1="32.83" x2="133.53" y2="36.58"/>
        </g>
      </g>
    </g>
  </g>
</svg>