<?xml version="1.0" encoding="UTF-8"?>
<svg id="Layer_2" data-name="Layer 2" xmlns="http://www.w3.org/2000/svg" xmlns:xlink="http://www.w3.org/1999/xlink" viewBox="0 0 104.11 157.75">
  <defs>
    <style>
      .cls-1 {
        fill: #7562a8;
      }

      .cls-1, .cls-2 {
        stroke-width: 0px;
      }

      .cls-2 {
        fill: none;
      }

      .cls-3 {
        clip-path: url(#clippath-1);
      }

      .cls-4 {
        clip-path: url(#clippath);
      }
    </style>
    <clipPath id="clippath">
      <rect class="cls-2" width="104.11" height="157.75"/>
    </clipPath>
    <clipPath id="clippath-1">
      <rect class="cls-2" y="0" width="104.11" height="157.75"/>
    </clipPath>
  </defs>
  <g id="Layer_1-2" data-name="Layer 1">
    <g id="Telefon">
      <g class="cls-4">
        <g class="cls-3">
          <path class="cls-1" d="M20.67,70.99c-1.93-7.6-2.87-11.58-1.03-15.48,2.54-5.38,6.93-4.4,12.04-9.98,8.57-9.36,6.16-23.47,6.04-24.06-.47-2.52-2.27-12.15-10.86-17.57C20.03-.42,9.3-1.83,4.5,3.21c-1.97,2.07-2.77,5.05-3.44,7.57C.29,13.69.2,16.21.05,20.71c-.1,2.79-.04,4.94,0,5.93.14,3.95.53,6.87.66,7.87,2.2,16.93,2.7,33.72,10.66,52.64h0c4.42,11.58,10.22,26.79,24.08,42.32,4.15,4.65,17.74,19.09,38.54,25.81,13.93,4.5,19.55,1.8,22.02,0,3.25-2.37,4.8-5.88,5.85-8.26,3.04-6.89,2.29-13.23,1.72-17.55-.75-5.7-1.24-9.42-4.13-13.07-3.89-4.91-9.41-6.26-16.17-7.91-5.7-1.39-7.71-.72-8.6-.34-1.59.67-2.9,1.81-6.54,7.57-4.93,7.8-4.97,9.56-6.88,10.32-.78.31-4.23,1.38-13.76-7.92-2.58-2.51-7.4-7.54-20.98-31.31-1.76-3.07-4.01-8.55-5.85-15.83"/>
        </g>
      </g>
    </g>
  </g>
</svg>