<?xml version="1.0" encoding="UTF-8"?>
<svg id="Layer_2" data-name="Layer 2" xmlns="http://www.w3.org/2000/svg" xmlns:xlink="http://www.w3.org/1999/xlink" viewBox="0 0 171.86 191.55">
  <defs>
    <style>
      .cls-1 {
        fill: #919dd0;
      }

      .cls-1, .cls-2, .cls-3, .cls-4, .cls-5, .cls-6, .cls-7, .cls-8, .cls-9, .cls-10, .cls-11 {
        stroke-width: 0px;
      }

      .cls-2 {
        fill: #f9f7f8;
      }

      .cls-12, .cls-13 {
        stroke: #1d1d1b;
      }

      .cls-12, .cls-13, .cls-5, .cls-14 {
        fill: none;
      }

      .cls-12, .cls-13, .cls-14 {
        stroke-miterlimit: 10;
      }

      .cls-12, .cls-14 {
        stroke-width: 1.46px;
      }

      .cls-13 {
        stroke-width: 3.65px;
      }

      .cls-3 {
        fill: #7562a8;
      }

      .cls-4 {
        fill: #373337;
      }

      .cls-15 {
        clip-path: url(#clippath-1);
      }

      .cls-6 {
        fill: #ec6242;
      }

      .cls-16 {
        clip-path: url(#clippath);
      }

      .cls-7 {
        fill: #2b2963;
      }

      .cls-8 {
        fill: #2f2e2f;
      }

      .cls-9 {
        fill: #fcc468;
      }

      .cls-10 {
        fill: #1d1d1b;
      }

      .cls-11 {
        fill: #575756;
      }

      .cls-14 {
        stroke: #fcc468;
      }
    </style>
    <clipPath id="clippath">
      <rect class="cls-5" width="171.86" height="191.55"/>
    </clipPath>
    <clipPath id="clippath-1">
      <rect class="cls-5" width="171.86" height="191.55"/>
    </clipPath>
  </defs>
  <g id="Layer_1-2" data-name="Layer 1">
    <g id="Uggla">
      <g class="cls-16">
        <g class="cls-15">
          <path class="cls-6" d="M167.23,191.55H53.22c-2.55,0-4.64-2.09-4.64-4.64v-7.26c0-2.55,2.09-4.64,4.64-4.64h114.01c2.55,0,4.64,2.09,4.64,4.64v7.26c0,2.55-2.09,4.64-4.64,4.64"/>
          <path class="cls-9" d="M84.6,173.36c0-4.05,3.28-7.32,7.32-7.32s7.32,3.28,7.32,7.32-3.28,7.32-7.32,7.32-7.32-3.28-7.32-7.32"/>
          <path class="cls-9" d="M110.22,170.93c0-4.05,3.28-7.32,7.32-7.32s7.32,3.28,7.32,7.32-3.28,7.32-7.32,7.32-7.32-3.28-7.32-7.32"/>
          <path class="cls-1" d="M80.19,169.98c8.44,4.24,17.53,3.44,21.96,3.06,4.62-.4,14.76-1.42,24.39-8.96,12.56-9.83,15.19-23.69,15.65-26.35,2.77-16.26-3.75-36.88-14.18-39.2-8.82-1.96-11.94,11.06-30.3,17.51-18.56,6.52-28.43-2.2-34.88,4.82-9.08,9.87-1.21,39.79,17.37,49.12"/>
          <path class="cls-7" d="M71.21,167.67c1.42,1.07,3.66,2.41,4.82,5.19.74,1.77.79,3.52,1.67,3.71.9.19,1.94-1.42,2.22-1.85,3.84-5.91-.08-24.7-.19-25.21-4.29-20.56-4.24-22.51-7.31-25.8-4.66-5-12.76-9.1-16.81-6.48-1.56,1.01-2.21,2.82-2.76,5.77-1.12,6-2.71,14.58,1.67,24.28,4.39,9.72,13.71,18.16,16.68,20.39"/>
          <path class="cls-7" d="M131.92,86.86c5.84.63,9,10.73,11.12,17.51,1.48,4.73,6.02,19.25,0,33.36-2.42,5.68-4.74,7.03-6.67,13.9-2.41,8.58-3.62,12.88-3.61,14.18,0,.83.05,2.65-.83,3.06-1.44.66-4.35-2.82-5-3.61-5.11-6.12-5.94-13.93-6.12-15.85-1.53-16.48,5.82-21.64,1.67-31.97-1.96-4.87-3.97-4.67-4.71-8.88-1.71-9.83,7.27-22.44,14.16-21.7"/>
          <path class="cls-3" d="M47.11,66.1c2.51-1.13,2.92-2.39,6.49-6.3,1.58-1.73,6.92-7.58,12.6-11.12,8.62-5.38,12.78-2.19,23.54-8.71,2.22-1.35,5.31-2.32,6.49-5.19,2.78-6.8,5.77-12.05,5.29-11.87-.51.2,2.96.88,5.27,2.97,2.72,2.47,5.95,3.62,9.82,9.45,10.5,15.81,15.75,23.71,16.49,34.47,1.25,18.1-8.49,31.34-10.93,34.47-1.52,1.94-17.22,21.37-43,20.2-21.92-.99-34.93-16.14-37.62-19.27-6.43-7.49-8.81-16.3-13.56-33.92-.48-1.79-1.32-5.22,0-6.12.89-.6,2.27.27,3.74.93,5.7,2.52,12.12,1.47,15.38,0"/>
          <path class="cls-1" d="M103.98,101.22c3.2.07,6.19-.24,7.88-.58,7.49-1.49,12.19-8.09,14.09-10.75.94-1.31,4.97-7.19,5.81-15.94.47-4.94-1.68-10.95-5.93-22.98,0,0-2.22-6.28-8.15-11.37-.16-.13-.64-.55-1.24-.49-.55.05-1.09.47-1.24.99-.15.54.15,1.04.25,1.24.78,1.58-1.53,4.74-2.22,5.56-2.91,3.42-8.73,2.37-14.95,4.94-9.1,3.76-16.17,14.03-15.2,19.65.13.77.72,3.23-.12,3.71-.59.33-1.62-.47-1.98-.74,0,0-1.85-1.4-10.01-4.08-5.84-1.92-14.11.47-18.53,5.07-2.33,2.42-2.58,4.4-5.81,6.3-1.15.68-4.34,2.57-7.54,1.61-2.61-.79-3.77-3.05-4.69-2.59-.92.45-.5,3.08-.37,3.83,2.34,13.68,10.13,22.24,10.13,22.24,2,2,4.25,4.66,8.15,7.04,1.78,1.09,14.98,8.86,28.17,3.09,3.37-1.48,9.8-4.29,11.84-10.12.73-2.09.68-3.95,2.37-5.2,2-1.47,4.25-.51,9.3-.41"/>
          <path class="cls-1" d="M88.52,98.37c0,11.45-9.28,20.74-20.74,20.74s-20.74-9.28-20.74-20.74,9.28-20.74,20.74-20.74,20.74,9.28,20.74,20.74"/>
          <path class="cls-13" d="M88.52,98.37c0,11.45-9.28,20.74-20.74,20.74s-20.74-9.28-20.74-20.74,9.28-20.74,20.74-20.74,20.74,9.28,20.74,20.74Z"/>
          <path class="cls-1" d="M127.76,74.17c0,11.45-9.28,20.74-20.74,20.74s-20.74-9.28-20.74-20.74,9.28-20.74,20.74-20.74,20.74,9.28,20.74,20.74"/>
          <path class="cls-13" d="M127.76,74.17c0,11.45-9.28,20.74-20.74,20.74s-20.74-9.28-20.74-20.74,9.28-20.74,20.74-20.74,20.74,9.28,20.74,20.74Z"/>
          <line class="cls-13" x1="85.81" y1="88.13" x2="89.73" y2="85.61"/>
          <path class="cls-9" d="M96.97,110.4c-.84-.36-4.53-1.95-5.75-5.75-.22-.7-1.24-3.86.74-6.58,1.93-2.65,5.16-2.77,5.56-2.78.78,0,1.92.11,3.06.74,3.13,1.74,3.62,6.01,3.8,7.6.45,3.96-.65,8.16-.65,8.16-.02,0-3.89-.15-6.77-1.39"/>
          <path class="cls-2" d="M86.41,98.34c0,9.08-7.36,16.44-16.44,16.44s-16.44-7.36-16.44-16.44,7.36-16.44,16.44-16.44,16.44,7.36,16.44,16.44"/>
          <path class="cls-2" d="M121.72,75.6c0,9.08-7.36,16.44-16.44,16.44s-16.44-7.36-16.44-16.44,7.36-16.44,16.44-16.44,16.44,7.36,16.44,16.44"/>
          <path class="cls-10" d="M115.64,77.33c0,6.91-5.6,12.51-12.51,12.51s-12.51-5.6-12.51-12.51,5.6-12.51,12.51-12.51,12.51,5.6,12.51,12.51"/>
          <path class="cls-10" d="M82.48,95.29c0,6.91-5.6,12.51-12.51,12.51s-12.51-5.6-12.51-12.51,5.6-12.51,12.51-12.51,12.51,5.6,12.51,12.51"/>
          <path class="cls-2" d="M72.09,95.05c0,3.58-2.9,6.48-6.48,6.48s-6.48-2.9-6.48-6.48,2.9-6.48,6.48-6.48,6.48,2.9,6.48,6.48"/>
          <path class="cls-12" d="M72.09,95.05c0,3.58-2.9,6.48-6.48,6.48s-6.48-2.9-6.48-6.48,2.9-6.48,6.48-6.48,6.48,2.9,6.48,6.48Z"/>
          <path class="cls-2" d="M104.88,75.6c0,3.58-2.9,6.48-6.48,6.48s-6.48-2.9-6.48-6.48,2.9-6.48,6.48-6.48,6.48,2.9,6.48,6.48"/>
          <path class="cls-12" d="M104.88,75.6c0,3.58-2.9,6.48-6.48,6.48s-6.48-2.9-6.48-6.48,2.9-6.48,6.48-6.48,6.48,2.9,6.48,6.48Z"/>
          <path class="cls-4" d="M115.37,0c-18.35,11.95-36.69,23.9-55.04,35.85C40.22,41.71,20.11,47.58,0,53.44c19.14-11.27,38.27-22.55,57.41-33.82C76.73,13.08,96.05,6.54,115.37,0"/>
          <path class="cls-8" d="M84.16,19.7c-8.3,5.24-16.6,10.49-24.9,15.73,6.73,12.32,13.45,24.65,20.18,36.97,9.28-10.04,18.55-20.08,27.83-30.12-7.7-7.53-15.4-15.05-23.11-22.58"/>
          <path class="cls-11" d="M59.25,35.43c-8.27,2.41-16.54,4.82-24.81,7.24l4.4,32.71c13.53-.99,27.06-1.99,40.59-2.98-6.73-12.32-13.45-24.65-20.18-36.97"/>
          <path class="cls-9" d="M61.31,23.74c.04.76-1.39,1.41-3.36,2.3-1.98.89-3.47,1.56-3.95,1.05-.69-.74.5-4.09,2.94-4.84,1.93-.6,4.32.53,4.38,1.49"/>
          <path class="cls-14" d="M60.9,23.03c2.86-2.08,6.74-4.46,11.65-6.37,7.81-3.04,14.81-3.55,19.37-3.51"/>
          <path class="cls-9" d="M91.57,13c7.57,13.48,13.71,24.37,13.49,24.5"/>
          <path class="cls-14" d="M91.57,13c7.57,13.48,13.71,24.37,13.49,24.5"/>
          <path class="cls-9" d="M108.54,40l22.68,40.41-3.88,2.18-22.68-40.41c-.95.41-1.8.09-1.6-.69l.7-2.73c.22-.84,1.51-1.56,2.34-1.31l2.69.82c.76.23.6,1.13-.25,1.73"/>
        </g>
      </g>
    </g>
  </g>
</svg>