<?xml version="1.0" encoding="UTF-8"?>
<svg id="Layer_2" data-name="Layer 2" xmlns="http://www.w3.org/2000/svg" xmlns:xlink="http://www.w3.org/1999/xlink" viewBox="0 0 192.96 225.06">
  <defs>
    <style>
      .cls-1 {
        fill: #919dd0;
      }

      .cls-1, .cls-2, .cls-3, .cls-4, .cls-5, .cls-6, .cls-7, .cls-8 {
        stroke-width: 0px;
      }

      .cls-9 {
        stroke-width: 4.88px;
      }

      .cls-9, .cls-10 {
        stroke: #1d1d1b;
        stroke-miterlimit: 10;
      }

      .cls-9, .cls-10, .cls-4 {
        fill: none;
      }

      .cls-2 {
        fill: #f9f7f8;
      }

      .cls-3 {
        fill: #7562a8;
      }

      .cls-10 {
        stroke-width: 1.95px;
      }

      .cls-11 {
        clip-path: url(#clippath-1);
      }

      .cls-5 {
        fill: #ec6242;
      }

      .cls-12 {
        clip-path: url(#clippath);
      }

      .cls-6 {
        fill: #2b2963;
      }

      .cls-7 {
        fill: #fcc468;
      }

      .cls-8 {
        fill: #1d1d1b;
      }
    </style>
    <clipPath id="clippath">
      <rect class="cls-4" width="192.96" height="225.06"/>
    </clipPath>
    <clipPath id="clippath-1">
      <rect class="cls-4" width="192.96" height="225.06"/>
    </clipPath>
  </defs>
  <g id="Layer_1-2" data-name="Layer 1">
    <g id="Uggla_utan_hatt" data-name="Uggla utan hatt">
      <g class="cls-12">
        <g class="cls-11">
          <path class="cls-5" d="M186.77,225.06H34.62c-3.4,0-6.19-2.79-6.19-6.19v-9.69c0-3.4,2.79-6.19,6.19-6.19h152.15c3.4,0,6.19,2.79,6.19,6.19v9.69c0,3.4-2.79,6.19-6.19,6.19"/>
          <path class="cls-7" d="M76.5,200.79c0-5.4,4.38-9.78,9.78-9.78s9.78,4.38,9.78,9.78-4.38,9.78-9.78,9.78-9.78-4.38-9.78-9.78"/>
          <path class="cls-7" d="M110.7,197.55c0-5.4,4.38-9.78,9.78-9.78s9.78,4.38,9.78,9.78-4.38,9.78-9.78,9.78-9.78-4.38-9.78-9.78"/>
          <path class="cls-1" d="M70.62,196.28c11.26,5.65,23.4,4.6,29.31,4.08,6.16-.54,19.7-1.9,32.54-11.95,16.76-13.12,20.27-31.61,20.88-35.17,3.7-21.7-5.01-49.22-18.92-52.31-11.76-2.61-15.93,14.77-40.44,23.37-24.77,8.7-37.94-2.93-46.56,6.43-12.12,13.17-1.61,53.1,23.18,65.55"/>
          <path class="cls-6" d="M58.63,193.19c1.9,1.42,4.88,3.21,6.43,6.93.98,2.36,1.06,4.7,2.23,4.95,1.2.25,2.59-1.89,2.97-2.47,5.12-7.89-.11-32.96-.25-33.64-5.73-27.44-5.66-30.04-9.75-34.43-6.21-6.68-17.04-12.15-22.44-8.65-2.08,1.35-2.94,3.76-3.68,7.71-1.49,8.01-3.62,19.46,2.23,32.4,5.86,12.98,18.3,24.24,22.26,27.21"/>
          <path class="cls-6" d="M139.65,85.35c7.79.84,12.01,14.32,14.84,23.37,1.97,6.31,8.04,25.7,0,44.52-3.23,7.58-6.33,9.38-8.9,18.55-3.22,11.46-4.83,17.18-4.82,18.92,0,1.11.07,3.53-1.11,4.08-1.92.89-5.8-3.77-6.68-4.82-6.81-8.17-7.92-18.59-8.16-21.15-2.04-22,7.77-28.88,2.23-42.67-2.61-6.5-5.3-6.23-6.28-11.85-2.29-13.12,9.71-29.95,18.9-28.96"/>
          <path class="cls-3" d="M26.47,57.65c3.35-1.51,3.89-3.19,8.66-8.41,2.11-2.31,9.24-10.11,16.82-14.84,11.5-7.18,17.05-2.92,31.41-11.62,2.97-1.8,7.09-3.09,8.66-6.93C95.73,6.78,99.71-.24,99.08,0c-.68.27,3.96,1.17,7.03,3.97,3.63,3.3,7.94,4.84,13.11,12.61,14.01,21.1,21.02,31.64,22.01,46,1.67,24.16-11.33,41.82-14.59,46-2.03,2.59-22.98,28.52-57.38,26.96-29.25-1.33-46.62-21.55-50.21-25.72-8.58-9.99-11.76-21.75-18.1-45.26-.65-2.39-1.77-6.97,0-8.16,1.19-.8,3.03.37,4.99,1.24,7.61,3.37,16.17,1.96,20.53,0"/>
          <path class="cls-1" d="M102.36,104.51c4.27.09,8.26-.33,10.51-.78,9.99-1.99,16.26-10.79,18.8-14.35,1.25-1.75,6.63-9.59,7.75-21.27.63-6.59-2.24-14.62-7.91-30.67,0,0-2.96-8.38-10.88-15.17-.21-.18-.85-.73-1.65-.66-.73.06-1.45.63-1.65,1.32-.21.72.2,1.39.33,1.65,1.04,2.11-2.04,6.33-2.97,7.42-3.88,4.56-11.64,3.17-19.95,6.6-12.15,5.01-21.58,18.73-20.28,26.22.18,1.02.97,4.32-.16,4.95-.79.44-2.16-.63-2.64-.99,0,0-2.47-1.87-13.36-5.44-7.79-2.56-18.82.62-24.73,6.76-3.11,3.23-3.45,5.87-7.75,8.41-1.53.91-5.8,3.43-10.06,2.14-3.49-1.05-5.04-4.07-6.27-3.46-1.23.6-.67,4.12-.49,5.11,3.13,18.25,13.52,29.68,13.52,29.68,2.67,2.67,5.67,6.22,10.88,9.4,2.38,1.45,19.99,11.82,37.6,4.12,4.5-1.97,13.08-5.72,15.8-13.51.97-2.79.9-5.27,3.16-6.94,2.67-1.97,5.67-.68,12.41-.54"/>
          <path class="cls-1" d="M81.73,100.71c0,15.28-12.39,27.67-27.67,27.67s-27.67-12.39-27.67-27.67,12.39-27.67,27.67-27.67,27.67,12.39,27.67,27.67"/>
          <path class="cls-9" d="M81.73,100.71c0,15.28-12.39,27.67-27.67,27.67s-27.67-12.39-27.67-27.67,12.39-27.67,27.67-27.67,27.67,12.39,27.67,27.67Z"/>
          <path class="cls-1" d="M134.1,68.42c0,15.28-12.39,27.67-27.67,27.67s-27.67-12.39-27.67-27.67,12.39-27.67,27.67-27.67,27.67,12.39,27.67,27.67"/>
          <path class="cls-9" d="M134.1,68.42c0,15.28-12.39,27.67-27.67,27.67s-27.67-12.39-27.67-27.67,12.39-27.67,27.67-27.67,27.67,12.39,27.67,27.67Z"/>
          <line class="cls-9" x1="78.12" y1="87.05" x2="83.34" y2="83.68"/>
          <path class="cls-7" d="M93.01,116.76c-1.12-.48-6.04-2.6-7.67-7.67-.3-.93-1.65-5.15.99-8.78,2.57-3.54,6.88-3.7,7.42-3.71,1.04,0,2.57.15,4.08.99,4.18,2.32,4.83,8.02,5.07,10.14.6,5.29-.87,10.88-.87,10.88-.02,0-5.19-.2-9.03-1.86"/>
          <path class="cls-2" d="M78.92,100.66c0,12.12-9.83,21.94-21.94,21.94s-21.94-9.82-21.94-21.94,9.83-21.94,21.94-21.94,21.94,9.82,21.94,21.94"/>
          <path class="cls-2" d="M126.03,70.32c0,12.12-9.83,21.94-21.94,21.94s-21.94-9.82-21.94-21.94,9.83-21.94,21.94-21.94,21.94,9.82,21.94,21.94"/>
          <path class="cls-8" d="M117.92,72.63c0,9.22-7.47,16.7-16.7,16.7s-16.69-7.48-16.69-16.7,7.47-16.7,16.69-16.7,16.7,7.48,16.7,16.7"/>
          <path class="cls-8" d="M73.67,96.6c0,9.22-7.47,16.7-16.7,16.7s-16.69-7.48-16.69-16.7,7.47-16.7,16.69-16.7,16.7,7.48,16.7,16.7"/>
          <path class="cls-2" d="M59.8,96.27c0,4.78-3.87,8.65-8.65,8.65s-8.65-3.87-8.65-8.65,3.87-8.65,8.65-8.65,8.65,3.87,8.65,8.65"/>
          <path class="cls-10" d="M59.8,96.27c0,4.78-3.87,8.65-8.65,8.65s-8.65-3.87-8.65-8.65,3.87-8.65,8.65-8.65,8.65,3.87,8.65,8.65Z"/>
          <path class="cls-2" d="M103.57,70.32c0,4.78-3.87,8.65-8.65,8.65s-8.65-3.87-8.65-8.65,3.87-8.65,8.65-8.65,8.65,3.87,8.65,8.65"/>
          <path class="cls-10" d="M103.57,70.32c0,4.78-3.87,8.65-8.65,8.65s-8.65-3.87-8.65-8.65,3.87-8.65,8.65-8.65,8.65,3.87,8.65,8.65Z"/>
        </g>
      </g>
    </g>
  </g>
</svg>